<svg version="1.1" xmlns="http://www.w3.org/2000/svg" viewBox="0 0 1257.3333740234375 668.0226927173417" width="1257.3333740234375" height="668.0226927173417">
  <!-- svg-source:excalidraw -->
  
  <defs>
    <style class="style-fonts">
      @font-face {
        font-family: "Virgil";
        src: url("https://excalidraw.com/Virgil.woff2");
      }
      @font-face {
        font-family: "Cascadia";
        src: url("https://excalidraw.com/Cascadia.woff2");
      }
    </style>
  </defs>
  <rect x="0" y="0" width="1257.3333740234375" height="668.0226927173417" fill="#ffffff"></rect><g stroke-linecap="round" transform="translate(119.66668701171875 262.66668701171875) rotate(0 81.66668701171875 145.66665649414062)"><path d="M102.5 36.5 M102.5 36.5 C113.23 55.37, 124.66 75.01, 142.83 109.5 M102.5 36.5 C113.63 57.78, 125.97 79.15, 142.83 109.5 M142.83 109.5 C162.85 144.99, 161.71 145.14, 142.83 182.5 M142.83 109.5 C161.99 147.34, 162.42 145.57, 142.83 182.5 M142.83 182.5 C132.71 203.86, 119.6 223.49, 102.5 254.83 M142.83 182.5 C134.07 201.01, 122.03 220.46, 102.5 254.83 M102.5 254.83 C83.04 291.08, 82.88 291.27, 61.5 254.83 M102.5 254.83 C80.81 289.57, 84.22 293.02, 61.5 254.83 M61.5 254.83 C48.46 232.6, 36.98 206.17, 20.5 182.5 M61.5 254.83 C49.68 233.5, 36.86 210.57, 20.5 182.5 M20.5 182.5 C-1.55 147.15, -1.45 145.61, 20.5 109.5 M20.5 182.5 C0.76 146.48, 0.55 146.57, 20.5 109.5 M20.5 109.5 C35.32 87.24, 45.79 66.04, 61.5 36.5 M20.5 109.5 C35.03 84.12, 49.96 58.23, 61.5 36.5 M61.5 36.5 C80.29 1.96, 83.31 -1.54, 102.5 36.5 M61.5 36.5 C83.69 0.65, 82.28 -0.82, 102.5 36.5" stroke="#000000" stroke-width="1" fill="none"></path></g><g stroke-linecap="round"><g transform="translate(223.44522957652816 202.66668701171875) rotate(0 -22.11185555309055 28.07499680596402)"><path d="M0.3 0.06 C-7.16 9.34, -37.41 46.54, -44.52 55.95 M-1 -0.96 C-8.14 8.44, -35.5 47.32, -42.43 57.11" stroke="#000000" stroke-width="1" fill="none"></path></g><g transform="translate(223.44522957652816 202.66668701171875) rotate(0 -22.11185555309055 28.07499680596402)"><path d="M-34.44 26.18 C-38.21 39.06, -39.78 46.31, -41.62 58.3 M-34.06 28.57 C-36.82 37.81, -39.57 49.81, -43.2 57.84" stroke="#000000" stroke-width="1" fill="none"></path></g><g transform="translate(223.44522957652816 202.66668701171875) rotate(0 -22.11185555309055 28.07499680596402)"><path d="M-17.68 38.03 C-26.85 47.15, -33.8 50.6, -41.62 58.3 M-17.3 40.41 C-26.02 45.4, -34.84 53.11, -43.2 57.84" stroke="#000000" stroke-width="1" fill="none"></path></g></g><mask></mask><g transform="translate(161.3333740234375 392) rotate(0 40 12.5)"><text x="0" y="0" font-family="Virgil, Segoe UI Emoji" font-size="20px" fill="#000000" text-anchor="start" style="white-space: pre;" direction="ltr" dominant-baseline="text-before-edge">傻逼微信</text></g><g stroke-linecap="round" transform="translate(128.66668701171875 59.333343505859375) rotate(0 87.33331298828125 43.333343505859375)"><path d="M72.04 1.23 C83.39 -0.4, 98.19 0.76, 110.26 2.51 C122.34 4.26, 134.91 7.67, 144.5 11.71 C154.09 15.76, 162.85 21.15, 167.79 26.77 C172.74 32.39, 174.66 39.15, 174.17 45.45 C173.69 51.76, 170.91 58.93, 164.9 64.61 C158.88 70.29, 148.62 76.08, 138.1 79.52 C127.58 82.96, 114.1 84.2, 101.77 85.27 C89.43 86.33, 76.14 87.55, 64.07 85.92 C52.01 84.28, 39.05 79.72, 29.37 75.45 C19.7 71.19, 10.86 65.94, 6.05 60.33 C1.24 54.72, -0.09 48.2, 0.54 41.77 C1.16 35.34, 3.82 27.23, 9.82 21.76 C15.83 16.28, 25.58 12.51, 36.56 8.92 C47.53 5.32, 68.83 1.43, 75.68 0.19 C82.54 -1.05, 77.7 0.8, 77.68 1.48 M106.21 1.2 C118.19 1.72, 130.74 4.41, 140.56 8.51 C150.38 12.6, 159.56 19.77, 165.14 25.79 C170.73 31.81, 174.09 38.4, 174.08 44.61 C174.08 50.81, 170.65 57.72, 165.13 63.02 C159.6 68.31, 150.67 72.52, 140.91 76.38 C131.15 80.25, 118.94 84.81, 106.58 86.19 C94.22 87.57, 78.83 86, 66.76 84.67 C54.68 83.34, 43.95 81.92, 34.12 78.21 C24.3 74.51, 13.51 67.99, 7.82 62.43 C2.14 56.88, -0.15 51.04, 0.03 44.9 C0.21 38.76, 3.71 31.36, 8.93 25.59 C14.14 19.82, 21.66 14.57, 31.31 10.26 C40.96 5.96, 54.07 1.38, 66.85 -0.27 C79.63 -1.92, 101.33 -0.23, 107.98 0.37 C114.64 0.96, 107.23 2.57, 106.79 3.32" stroke="#000000" stroke-width="1" fill="none"></path></g><g transform="translate(196 90.16668701171875) rotate(0 20 12.5)"><text x="20" y="0" font-family="Virgil, Segoe UI Emoji" font-size="20px" fill="#000000" text-anchor="middle" style="white-space: pre;" direction="ltr" dominant-baseline="text-before-edge">萨达</text></g><g stroke-linecap="round" transform="translate(10 10) rotate(0 206 92.66668701171875)"><path d="M32 0 M32 0 C150.11 0.11, 265.97 0.34, 380 0 M32 0 C107.91 -1.07, 184.55 -1.53, 380 0 M380 0 C401.2 1.4, 410.03 12.66, 412 32 M380 0 C399.9 -0.84, 414.1 12.96, 412 32 M412 32 C409.82 75.68, 412.83 120.99, 412 153.33 M412 32 C414.06 55.57, 412.49 81.13, 412 153.33 M412 153.33 C412.88 174.3, 402.28 185.47, 380 185.33 M412 153.33 C413.29 175.2, 399.33 183.52, 380 185.33 M380 185.33 C255.92 184.57, 130.75 184.29, 32 185.33 M380 185.33 C254.27 184.84, 129.88 184.03, 32 185.33 M32 185.33 C12.58 183.35, 0.5 172.88, 0 153.33 M32 185.33 C11.54 186.17, -0.16 176.01, 0 153.33 M0 153.33 C0.51 111.86, 0.85 70.41, 0 32 M0 153.33 C0.03 119.69, -1.29 84.2, 0 32 M0 32 C-0.79 8.96, 10.59 0.09, 32 0 M0 32 C-0.39 8.7, 9.69 -1.07, 32 0" stroke="#000000" stroke-width="1" fill="none"></path></g><g stroke-linecap="round" transform="translate(954.0000610351562 230) rotate(0 87.33331298828125 43.333343505859375)"><path d="M67.46 1.94 C78.98 -0.02, 94.84 -0.8, 107.2 0.35 C119.56 1.5, 131.75 4.7, 141.63 8.84 C151.5 12.97, 161.05 19.47, 166.47 25.19 C171.89 30.9, 174.21 37.07, 174.17 43.11 C174.13 49.15, 171.44 55.71, 166.22 61.43 C161 67.15, 152.87 73.29, 142.85 77.43 C132.83 81.57, 118.54 84.81, 106.1 86.25 C93.67 87.69, 80.3 87.6, 68.24 86.08 C56.18 84.56, 43.6 81.1, 33.76 77.12 C23.93 73.14, 14.97 67.87, 9.23 62.21 C3.49 56.54, -0.68 49.39, -0.7 43.12 C-0.72 36.86, 3.44 30.09, 9.12 24.62 C14.79 19.14, 22.71 14.39, 33.36 10.29 C44.02 6.19, 65.61 1.65, 73.04 0.01 C80.47 -1.63, 77.59 -0.48, 77.93 0.47 M55.08 3.92 C65.95 0.85, 80.69 -0.48, 93.27 -0.07 C105.85 0.34, 119.72 3.46, 130.58 6.39 C141.45 9.32, 151.27 12.56, 158.47 17.51 C165.68 22.46, 171.56 29.83, 173.79 36.09 C176.02 42.36, 175.65 49.04, 171.84 55.07 C168.03 61.11, 159.7 67.42, 150.91 72.3 C142.12 77.17, 130.5 82.02, 119.11 84.34 C107.72 86.66, 94.89 86.96, 82.55 86.22 C70.21 85.48, 56.06 83.03, 45.07 79.92 C34.08 76.8, 24 72.49, 16.61 67.53 C9.23 62.57, 2.95 56.01, 0.76 50.15 C-1.43 44.29, 0.02 38.29, 3.49 32.39 C6.96 26.5, 12.89 19.51, 21.57 14.78 C30.26 10.06, 49.86 5.93, 55.58 4.04 C61.3 2.16, 55.33 2.71, 55.89 3.46" stroke="#000000" stroke-width="1" fill="none"></path></g><g transform="translate(1021.3333740234375 260.8333435058594) rotate(0 20 12.5)"><text x="20" y="0" font-family="Virgil, Segoe UI Emoji" font-size="20px" fill="#000000" text-anchor="middle" style="white-space: pre;" direction="ltr" dominant-baseline="text-before-edge">萨达</text></g><g stroke-linecap="round" transform="translate(835.3333740234375 180.66665649414062) rotate(0 206 92.66668701171875)"><path d="M32 0 M32 0 C148.74 -0.02, 265.37 2.11, 380 0 M32 0 C159.25 0.3, 287.71 -0.39, 380 0 M380 0 C401.12 0.19, 410.8 12.42, 412 32 M380 0 C402 -2.06, 413.6 10.92, 412 32 M412 32 C413.8 74.09, 411.44 115.66, 412 153.33 M412 32 C412.74 75.61, 411.37 118.49, 412 153.33 M412 153.33 C410.7 176.36, 402.97 183.78, 380 185.33 M412 153.33 C410.52 176.44, 402.49 186.41, 380 185.33 M380 185.33 C262.54 185.97, 142.75 186.52, 32 185.33 M380 185.33 C279.64 184.59, 179.82 185.01, 32 185.33 M32 185.33 C11.41 184.85, 0.49 173.02, 0 153.33 M32 185.33 C11.84 184.27, -0.62 174.32, 0 153.33 M0 153.33 C-0.38 118.99, 0.08 82.49, 0 32 M0 153.33 C-0.55 121.57, -1.5 88.83, 0 32 M0 32 C-0.09 9.42, 10.77 0.93, 32 0 M0 32 C-1.45 11.68, 8.69 1.67, 32 0" stroke="#000000" stroke-width="1" fill="none"></path></g><g stroke-linecap="round"><g transform="translate(422.6666259765625 90.66668701171875) rotate(0 207.44080557306302 93.40094907035584)"><path d="M0.29 -1.03 C69.41 29.85, 344.78 155.06, 413.69 186.19 M-1.01 1.05 C68.55 32.07, 346.37 156.85, 415.89 187.83" stroke="#000000" stroke-width="1" fill="none"></path></g><g transform="translate(422.6666259765625 90.66668701171875) rotate(0 207.44080557306302 93.40094907035584)"><path d="M384.26 184.05 C392.86 184.53, 398.67 184.62, 416.65 188.05 M386.45 185.36 C391.98 186.8, 398.6 185.87, 416.45 186.88" stroke="#000000" stroke-width="1" fill="none"></path></g><g transform="translate(422.6666259765625 90.66668701171875) rotate(0 207.44080557306302 93.40094907035584)"><path d="M392.64 165.32 C399.55 169.92, 403.53 174.11, 416.65 188.05 M394.84 166.63 C398.52 172.2, 403.26 175.46, 416.45 186.88" stroke="#000000" stroke-width="1" fill="none"></path></g></g><mask></mask><g stroke-linecap="round"><g transform="translate(767.3333740234375 656.6666870117188) rotate(0 -312.45612549933605 -102.34494318470581)"><path d="M-0.27 -0.83 C-94.52 -28.07, -491.6 -130.03, -565.17 -163.85 C-638.74 -197.67, -431.49 -207.32, -441.69 -203.73 C-451.89 -200.13, -595.68 -152.5, -626.39 -142.29 M1.79 1.36 C-92.57 -25.7, -491.62 -128.1, -565.69 -162.59 C-639.76 -197.07, -432.47 -208.63, -442.64 -205.58 C-452.81 -202.53, -596.46 -154.95, -626.7 -144.3" stroke="#000000" stroke-width="1" fill="none"></path></g><g transform="translate(767.3333740234375 656.6666870117188) rotate(0 -312.45612549933605 -102.34494318470581)"><path d="M-604.68 -161.7 C-611.89 -157.57, -617.13 -152.6, -624.97 -145.38 M-603.37 -162.95 C-612.03 -155.62, -620.88 -149.87, -626.26 -143.48" stroke="#000000" stroke-width="1" fill="none"></path></g><g transform="translate(767.3333740234375 656.6666870117188) rotate(0 -312.45612549933605 -102.34494318470581)"><path d="M-598.09 -142.26 C-607.39 -144.52, -614.79 -145.91, -624.97 -145.38 M-596.77 -143.51 C-607.9 -143.42, -619.18 -144.86, -626.26 -143.48" stroke="#000000" stroke-width="1" fill="none"></path></g></g><mask></mask></svg>