<svg version="1.1" xmlns="http://www.w3.org/2000/svg" viewBox="0 0 3263.8445818184446 1866.2614032093475" width="9791.533745455334" height="5598.784209628042">
  <!-- svg-source:excalidraw -->
  
  <defs>
    <style class="style-fonts">
      @font-face {
        font-family: "Virgil";
        src: url("https://excalidraw.com/Virgil.woff2");
      }
      @font-face {
        font-family: "Cascadia";
        src: url("https://excalidraw.com/Cascadia.woff2");
      }
    </style>
  </defs>
  <rect x="0" y="0" width="3263.8445818184446" height="1866.2614032093475" fill="#ffffff"></rect><g stroke-linecap="round" transform="translate(1952.1362484851104 607.6190476190473) rotate(0 140.5000000000001 57)"><path d="M28.5 0 M28.5 0 C106.65 0, 184.8 0, 252.5 0 M28.5 0 C110.41 0, 192.33 0, 252.5 0 M252.5 0 C271.5 0, 281 9.5, 281 28.5 M252.5 0 C271.5 0, 281 9.5, 281 28.5 M281 28.5 C281 47.87, 281 67.23, 281 85.5 M281 28.5 C281 45.19, 281 61.87, 281 85.5 M281 85.5 C281 104.5, 271.5 114, 252.5 114 M281 85.5 C281 104.5, 271.5 114, 252.5 114 M252.5 114 C172.65 114, 92.81 114, 28.5 114 M252.5 114 C198.64 114, 144.77 114, 28.5 114 M28.5 114 C9.5 114, 0 104.5, 0 85.5 M28.5 114 C9.5 114, 0 104.5, 0 85.5 M0 85.5 C0 66.69, 0 47.87, 0 28.5 M0 85.5 C0 68.91, 0 52.31, 0 28.5 M0 28.5 C0 9.5, 9.5 0, 28.5 0 M0 28.5 C0 9.5, 9.5 0, 28.5 0" stroke="#000000" stroke-width="1" fill="none"></path></g><g transform="translate(2036.6157406726104 648.5190476190473) rotate(0 56.020507812500114 16.100000000000023)"><text x="56.0205078125" y="0" font-family="Helvetica, Segoe UI Emoji" font-size="28px" fill="#000000" text-anchor="middle" style="white-space: pre;" direction="ltr" dominant-baseline="text-before-edge">rootFiber</text></g><g mask="url(#mask-sXPV3eLHR7YbgcygI1xBI)" stroke-linecap="round"><g transform="translate(2092.6020566624343 721.4285714285716) rotate(0 0.034191822676461925 79.64285714285722)"><path d="M0 0 C0.01 26.55, 0.06 132.74, 0.07 159.29 M0 0 C0.01 26.55, 0.06 132.74, 0.07 159.29" stroke="#2b8a3e" stroke-width="1" fill="none"></path></g><g transform="translate(2092.6020566624343 721.4285714285716) rotate(0 0.034191822676461925 79.64285714285722)"><path d="M-10.2 131.1 C-6.62 140.94, -3.03 150.79, 0.07 159.29 M-10.2 131.1 C-6.61 140.96, -3.02 150.81, 0.07 159.29" stroke="#2b8a3e" stroke-width="1" fill="none"></path></g><g transform="translate(2092.6020566624343 721.4285714285716) rotate(0 0.034191822676461925 79.64285714285722)"><path d="M10.32 131.09 C6.74 140.94, 3.16 150.78, 0.07 159.29 M10.32 131.09 C6.73 140.95, 3.15 150.81, 0.07 159.29" stroke="#2b8a3e" stroke-width="1" fill="none"></path></g></g><mask id="mask-sXPV3eLHR7YbgcygI1xBI"><rect x="0" y="0" fill="#fff" width="2192.6704403077874" height="980.714285714286"></rect><rect x="2063.8432797351106" y="784.971428571429" fill="#000" width="57.5859375" height="32.199999999999996" opacity="1"></rect></mask><g transform="translate(2063.8432797351106 784.971428571429) rotate(0 28.792968749999886 16.099999999999795)"><text x="28.79296875" y="0" font-family="Helvetica, Segoe UI Emoji" font-size="28px" fill="#2b8a3e" text-anchor="middle" style="white-space: pre;" direction="ltr" dominant-baseline="text-before-edge">child</text></g><g stroke-linecap="round" transform="translate(1952.1362484851106 889.4285714285716) rotate(0 140.5 57)"><path d="M28.5 0 M28.5 0 C115.38 0, 202.26 0, 252.5 0 M28.5 0 C93.84 0, 159.19 0, 252.5 0 M252.5 0 C271.5 0, 281 9.5, 281 28.5 M252.5 0 C271.5 0, 281 9.5, 281 28.5 M281 28.5 C281 50.25, 281 72, 281 85.5 M281 28.5 C281 45.25, 281 62.01, 281 85.5 M281 85.5 C281 104.5, 271.5 114, 252.5 114 M281 85.5 C281 104.5, 271.5 114, 252.5 114 M252.5 114 C206.37 114, 160.25 114, 28.5 114 M252.5 114 C186.36 114, 120.23 114, 28.5 114 M28.5 114 C9.5 114, 0 104.5, 0 85.5 M28.5 114 C9.5 114, 0 104.5, 0 85.5 M0 85.5 C0 63.54, 0 41.58, 0 28.5 M0 85.5 C0 70.44, 0 55.38, 0 28.5 M0 28.5 C0 9.5, 9.5 0, 28.5 0 M0 28.5 C0 9.5, 9.5 0, 28.5 0" stroke="#000000" stroke-width="1" fill="none"></path></g><g transform="translate(2083.2983578601106 930.3285714285716) rotate(0 9.337890625 16.100000000000023)"><text x="9.337890625" y="0" font-family="Helvetica, Segoe UI Emoji" font-size="28px" fill="#000000" text-anchor="middle" style="white-space: pre;" direction="ltr" dominant-baseline="text-before-edge">A</text></g><g stroke-linecap="round" transform="translate(1952.1362484851104 1158.714285714286) rotate(0 140.5000000000001 57)"><path d="M28.5 0 M28.5 0 C73.8 0, 119.1 0, 252.5 0 M28.5 0 C110.75 0, 193 0, 252.5 0 M252.5 0 C271.5 0, 281 9.5, 281 28.5 M252.5 0 C271.5 0, 281 9.5, 281 28.5 M281 28.5 C281 46.66, 281 64.81, 281 85.5 M281 28.5 C281 47.26, 281 66.03, 281 85.5 M281 85.5 C281 104.5, 271.5 114, 252.5 114 M281 85.5 C281 104.5, 271.5 114, 252.5 114 M252.5 114 C165.95 114, 79.39 114, 28.5 114 M252.5 114 C171.37 114, 90.23 114, 28.5 114 M28.5 114 C9.5 114, 0 104.5, 0 85.5 M28.5 114 C9.5 114, 0 104.5, 0 85.5 M0 85.5 C0 68.62, 0 51.74, 0 28.5 M0 85.5 C0 73.6, 0 61.7, 0 28.5 M0 28.5 C0 9.5, 9.5 0, 28.5 0 M0 28.5 C0 9.5, 9.5 0, 28.5 0" stroke="#000000" stroke-width="1" fill="none"></path></g><g transform="translate(2083.2983578601106 1199.614285714286) rotate(0 9.337890625 16.100000000000023)"><text x="9.337890625" y="0" font-family="Helvetica, Segoe UI Emoji" font-size="28px" fill="#000000" text-anchor="middle" style="white-space: pre;" direction="ltr" dominant-baseline="text-before-edge">B</text></g><g mask="url(#mask-WylvmbjrTgfUmE_NUVCzR)" stroke-linecap="round"><g transform="translate(2092.3705190884198 1005.0000000000002) rotate(0 0.2657293966907446 74.64285714285711)"><path d="M0 0 C0.09 24.88, 0.44 124.4, 0.53 149.29 M0 0 C0.09 24.88, 0.44 124.4, 0.53 149.29" stroke="#2b8a3e" stroke-width="1" fill="none"></path></g><g transform="translate(2092.3705190884198 1005.0000000000002) rotate(0 0.2657293966907446 74.64285714285711)"><path d="M-9.83 121.13 C-6.24 130.9, -2.64 140.66, 0.53 149.29 M-9.83 121.13 C-7 128.82, -4.17 136.51, 0.53 149.29" stroke="#2b8a3e" stroke-width="1" fill="none"></path></g><g transform="translate(2092.3705190884198 1005.0000000000002) rotate(0 0.2657293966907446 74.64285714285711)"><path d="M10.69 121.06 C7.17 130.85, 3.64 140.64, 0.53 149.29 M10.69 121.06 C7.92 128.77, 5.14 136.48, 0.53 149.29" stroke="#2b8a3e" stroke-width="1" fill="none"></path></g></g><mask id="mask-WylvmbjrTgfUmE_NUVCzR"><rect x="0" y="0" fill="#fff" width="2192.901977881801" height="1254.2857142857144"></rect><rect x="2063.8432797351106" y="1063.5428571428574" fill="#000" width="57.5859375" height="32.199999999999996" opacity="1"></rect></mask><g transform="translate(2063.8432797351106 1063.5428571428574) rotate(0 28.792968749999886 16.09999999999991)"><text x="28.79296875" y="0" font-family="Helvetica, Segoe UI Emoji" font-size="28px" fill="#2b8a3e" text-anchor="middle" style="white-space: pre;" direction="ltr" dominant-baseline="text-before-edge">child</text></g><g stroke-linecap="round" transform="translate(2468.55886753273 889.4285714285716) rotate(0 140.5 57)"><path d="M28.5 0 M28.5 0 C80.34 0, 132.19 0, 252.5 0 M28.5 0 C91.98 0, 155.46 0, 252.5 0 M252.5 0 C271.5 0, 281 9.5, 281 28.5 M252.5 0 C271.5 0, 281 9.5, 281 28.5 M281 28.5 C281 45.85, 281 63.2, 281 85.5 M281 28.5 C281 44.33, 281 60.17, 281 85.5 M281 85.5 C281 104.5, 271.5 114, 252.5 114 M281 85.5 C281 104.5, 271.5 114, 252.5 114 M252.5 114 C169.1 114, 85.69 114, 28.5 114 M252.5 114 C190.61 114, 128.71 114, 28.5 114 M28.5 114 C9.5 114, 0 104.5, 0 85.5 M28.5 114 C9.5 114, 0 104.5, 0 85.5 M0 85.5 C0 66.43, 0 47.36, 0 28.5 M0 85.5 C0 68.66, 0 51.82, 0 28.5 M0 28.5 C0 9.5, 9.5 0, 28.5 0 M0 28.5 C0 9.5, 9.5 0, 28.5 0" stroke="#000000" stroke-width="1" fill="none"></path></g><g transform="translate(2591.93484409523 930.3285714285716) rotate(0 17.1240234375 16.100000000000023)"><text x="17.1240234375" y="0" font-family="Helvetica, Segoe UI Emoji" font-size="28px" fill="#000000" text-anchor="middle" style="white-space: pre;" direction="ltr" dominant-baseline="text-before-edge">A1</text></g><g stroke-linecap="round" transform="translate(2972.8445818184446 889.4285714285716) rotate(0 140.5 57)"><path d="M28.5 0 M28.5 0 C101 0, 173.49 0, 252.5 0 M28.5 0 C106.05 0, 183.6 0, 252.5 0 M252.5 0 C271.5 0, 281 9.5, 281 28.5 M252.5 0 C271.5 0, 281 9.5, 281 28.5 M281 28.5 C281 45.51, 281 62.52, 281 85.5 M281 28.5 C281 48.5, 281 68.49, 281 85.5 M281 85.5 C281 104.5, 271.5 114, 252.5 114 M281 85.5 C281 104.5, 271.5 114, 252.5 114 M252.5 114 C194.02 114, 135.53 114, 28.5 114 M252.5 114 C189.45 114, 126.4 114, 28.5 114 M28.5 114 C9.5 114, 0 104.5, 0 85.5 M28.5 114 C9.5 114, 0 104.5, 0 85.5 M0 85.5 C0 67.38, 0 49.25, 0 28.5 M0 85.5 C0 63.15, 0 40.8, 0 28.5 M0 28.5 C0 9.5, 9.5 0, 28.5 0 M0 28.5 C0 9.5, 9.5 0, 28.5 0" stroke="#000000" stroke-width="1" fill="none"></path></g><g transform="translate(3096.2205583809446 930.3285714285716) rotate(0 17.1240234375 16.100000000000023)"><text x="17.1240234375" y="0" font-family="Helvetica, Segoe UI Emoji" font-size="28px" fill="#000000" text-anchor="middle" style="white-space: pre;" direction="ltr" dominant-baseline="text-before-edge">A2</text></g><g mask="url(#mask-zhNZIsZc2Nv9kwy_vYqUu)" stroke-linecap="round"><g transform="translate(2236.201724675586 945.4483971822287) rotate(0 115.67857142857201 0.9801742463425853)"><path d="M0 0 C38.56 0.33, 192.8 1.63, 231.36 1.96 M0 0 C38.56 0.33, 192.8 1.63, 231.36 1.96" stroke="#0b7285" stroke-width="1" fill="none"></path></g><g transform="translate(2236.201724675586 945.4483971822287) rotate(0 115.67857142857201 0.9801742463425853)"><path d="M203.08 11.98 C211.24 9.09, 219.41 6.2, 231.36 1.96 M203.08 11.98 C209.66 9.65, 216.24 7.32, 231.36 1.96" stroke="#0b7285" stroke-width="1" fill="none"></path></g><g transform="translate(2236.201724675586 945.4483971822287) rotate(0 115.67857142857201 0.9801742463425853)"><path d="M203.25 -8.54 C211.37 -5.51, 219.48 -2.48, 231.36 1.96 M203.25 -8.54 C209.79 -6.1, 216.33 -3.65, 231.36 1.96" stroke="#0b7285" stroke-width="1" fill="none"></path></g></g><mask id="mask-zhNZIsZc2Nv9kwy_vYqUu"><rect x="0" y="0" fill="#fff" width="2567.55886753273" height="1047.408745674914"></rect><rect x="2312.1908429791574" y="930.3285714285714" fill="#000" width="79.37890625" height="32.199999999999996" opacity="1"></rect></mask><g transform="translate(2312.1908429791583 930.3285714285714) rotate(0 39.689453125 16.09999999999991)"><text x="39.689453125" y="0" font-family="Helvetica, Segoe UI Emoji" font-size="28px" fill="#0b7285" text-anchor="middle" style="white-space: pre;" direction="ltr" dominant-baseline="text-before-edge">sibling</text></g><g mask="url(#mask-KqDnNcKMyXeAxWRyJkx0K)" stroke-linecap="round"><g transform="translate(2753.3445818184446 946.3692594581062) rotate(0 108.57142857142844 0.059311970465387276)"><path d="M0 0 C36.19 0.02, 180.95 0.1, 217.14 0.12 M0 0 C36.19 0.02, 180.95 0.1, 217.14 0.12" stroke="#0b7285" stroke-width="1" fill="none"></path></g><g transform="translate(2753.3445818184446 946.3692594581062) rotate(0 108.57142857142844 0.059311970465387276)"><path d="M188.95 10.36 C196.31 7.69, 203.67 5.01, 217.14 0.12 M188.95 10.36 C194.94 8.19, 200.94 6.01, 217.14 0.12" stroke="#0b7285" stroke-width="1" fill="none"></path></g><g transform="translate(2753.3445818184446 946.3692594581062) rotate(0 108.57142857142844 0.059311970465387276)"><path d="M188.96 -10.16 C196.32 -7.47, 203.68 -4.79, 217.14 0.12 M188.96 -10.16 C194.95 -7.97, 200.94 -5.79, 217.14 0.12" stroke="#0b7285" stroke-width="1" fill="none"></path></g></g><mask id="mask-KqDnNcKMyXeAxWRyJkx0K"><rect x="0" y="0" fill="#fff" width="3070.4874389613015" height="1046.487883399037"></rect><rect x="2822.226557264873" y="930.3285714285716" fill="#000" width="79.37890625" height="32.199999999999996" opacity="1"></rect></mask><g transform="translate(2822.226557264873 930.3285714285716) rotate(0 39.689453125 16.09999999999991)"><text x="39.689453125" y="0" font-family="Helvetica, Segoe UI Emoji" font-size="28px" fill="#0b7285" text-anchor="middle" style="white-space: pre;" direction="ltr" dominant-baseline="text-before-edge">sibling</text></g><g mask="url(#mask-6Fnuc-jDmW0TYxOU8gJKU)" stroke-linecap="round"><g transform="translate(2613.5793278111105 886.7142857142856) rotate(0 -185.8827766727336 -110.65336059134984)"><path d="M0.9 -0.1 C-11.3 -20.58, -13.94 -83.23, -75.95 -120.08 C-137.95 -156.92, -322.06 -204.19, -371.14 -221.2 M-2.05 -2.63 C-14.45 -22.73, -16.82 -88.17, -78.59 -124.23 C-140.36 -160.28, -324.24 -202.86, -372.67 -218.98" stroke="#e67700" stroke-width="1" fill="none"></path></g><g transform="translate(2613.5793278111105 886.7142857142856) rotate(0 -185.8827766727336 -110.65336059134984)"><path d="M-342.9 -222.22 C-346.49 -219.78, -357.14 -218.32, -376.31 -217.95 M-341.7 -222.54 C-350.3 -222.31, -357.58 -219.94, -373.31 -219.78" stroke="#e67700" stroke-width="1" fill="none"></path></g><g transform="translate(2613.5793278111105 886.7142857142856) rotate(0 -185.8827766727336 -110.65336059134984)"><path d="M-348.49 -202.48 C-351.35 -204.07, -360.87 -206.6, -376.31 -217.95 M-347.29 -202.8 C-354.74 -207.4, -360.65 -209.87, -373.31 -219.78" stroke="#e67700" stroke-width="1" fill="none"></path></g></g><mask id="mask-6Fnuc-jDmW0TYxOU8gJKU"><rect x="0" y="0" fill="#fff" width="3085.2426452323484" height="1206.285714285714"></rect><rect x="2501.803744764872" y="748.9542495479207" fill="#000" width="73.14453125" height="32.199999999999996" opacity="1"></rect></mask><g transform="translate(2501.8037447648726 748.9542495479207) rotate(0 -74.1071936264957 27.10667557501506)"><text x="36.572265625" y="0" font-family="Helvetica, Segoe UI Emoji" font-size="28px" fill="#e67700" text-anchor="middle" style="white-space: pre;" direction="ltr" dominant-baseline="text-before-edge">return</text></g><g mask="url(#mask-K-o8dOhXziPqjYtYPOJP7)" stroke-linecap="round"><g transform="translate(3094.0347236476814 885.5714285714284) rotate(0 -428.3473572889618 -108.79717528600759)"><path d="M-1.24 0.37 C-50 -19.96, -149.76 -87.82, -292.53 -123.48 C-435.3 -159.14, -763.47 -198.55, -857.88 -213.58 M3.28 -1.9 C-44.6 -22.84, -143.44 -91.24, -287.31 -127.25 C-431.19 -163.26, -764.64 -202.73, -859.97 -217.96" stroke="#e67700" stroke-width="1" fill="none"></path></g><g transform="translate(3094.0347236476814 885.5714285714284) rotate(0 -428.3473572889618 -108.79717528600759)"><path d="M-830.1 -227.3 C-836.22 -223.34, -845.24 -223.04, -857.08 -215.68 M-831.21 -223.15 C-841.77 -220.32, -852.18 -220.33, -860.21 -216.99" stroke="#e67700" stroke-width="1" fill="none"></path></g><g transform="translate(3094.0347236476814 885.5714285714284) rotate(0 -428.3473572889618 -108.79717528600759)"><path d="M-832.96 -206.98 C-837.99 -209.08, -846.17 -214.87, -857.08 -215.68 M-834.07 -202.83 C-843.83 -206.84, -853.28 -213.66, -860.21 -216.99" stroke="#e67700" stroke-width="1" fill="none"></path></g></g><mask id="mask-K-o8dOhXziPqjYtYPOJP7"><rect x="0" y="0" fill="#fff" width="4051.3880332290905" height="1201.275210837221"></rect><rect x="2767.1091484412723" y="743.7043551663955" fill="#000" width="73.14453125" height="32.199999999999996" opacity="1"></rect></mask><g transform="translate(2767.1091484412727 743.7043551663955) rotate(0 -101.42178208255314 33.06989811902531)"><text x="36.572265625" y="0" font-family="Helvetica, Segoe UI Emoji" font-size="28px" fill="#e67700" text-anchor="middle" style="white-space: pre;" direction="ltr" dominant-baseline="text-before-edge">return</text></g><g stroke-linecap="round" transform="translate(1952.1362484851106 1431.5714285714284) rotate(0 140.5 57)"><path d="M28.5 0 M28.5 0 C86.11 0, 143.71 0, 252.5 0 M28.5 0 C110.06 0, 191.61 0, 252.5 0 M252.5 0 C271.5 0, 281 9.5, 281 28.5 M252.5 0 C271.5 0, 281 9.5, 281 28.5 M281 28.5 C281 40.46, 281 52.42, 281 85.5 M281 28.5 C281 46.03, 281 63.56, 281 85.5 M281 85.5 C281 104.5, 271.5 114, 252.5 114 M281 85.5 C281 104.5, 271.5 114, 252.5 114 M252.5 114 C181.58 114, 110.66 114, 28.5 114 M252.5 114 C202.11 114, 151.71 114, 28.5 114 M28.5 114 C9.5 114, 0 104.5, 0 85.5 M28.5 114 C9.5 114, 0 104.5, 0 85.5 M0 85.5 C0 67.4, 0 49.29, 0 28.5 M0 85.5 C0 73, 0 60.5, 0 28.5 M0 28.5 C0 9.5, 9.5 0, 28.5 0 M0 28.5 C0 9.5, 9.5 0, 28.5 0" stroke="#000000" stroke-width="1" fill="none"></path></g><g transform="translate(2082.5258969226106 1472.4714285714283) rotate(0 10.1103515625 16.100000000000023)"><text x="10.1103515625" y="0" font-family="Helvetica, Segoe UI Emoji" font-size="28px" fill="#000000" text-anchor="middle" style="white-space: pre;" direction="ltr" dominant-baseline="text-before-edge">C</text></g><g stroke-linecap="round" transform="translate(2447.1302961041583 1431.5714285714284) rotate(0 140.5 57)"><path d="M28.5 0 M28.5 0 C81.38 2.73, 136.53 0.01, 252.5 0 M28.5 0 C84.88 -0.51, 142.72 -1.65, 252.5 0 M252.5 0 C272.46 -2.11, 282.52 11.25, 281 28.5 M252.5 0 C271.52 1.18, 283.06 12.89, 281 28.5 M281 28.5 C284.03 41.4, 283.27 56.28, 281 85.5 M281 28.5 C281.64 49.43, 281.42 71.54, 281 85.5 M281 85.5 C283.28 108.02, 270.8 110.12, 252.5 114 M281 85.5 C277.52 106.07, 269.29 117.44, 252.5 114 M252.5 114 C168.18 111.76, 83.23 111.48, 28.5 114 M252.5 114 C172.45 116.43, 89.93 115.65, 28.5 114 M28.5 114 C6.89 111, 1.65 107.98, 0 85.5 M28.5 114 C5.58 118.39, -3.72 102.09, 0 85.5 M0 85.5 C-0.83 68.39, 1.64 60.87, 0 28.5 M0 85.5 C-0.42 65.24, 0.35 47.86, 0 28.5 M0 28.5 C2.29 6.91, 9 -1.63, 28.5 0 M0 28.5 C-1.32 12.15, 6.09 -3.58, 28.5 0" stroke="#000000" stroke-width="1" fill="none"></path></g><g transform="translate(2569.7338117291583 1472.4714285714283) rotate(0 17.896484375 16.100000000000023)"><text x="17.896484375" y="0" font-family="Helvetica, Segoe UI Emoji" font-size="28px" fill="#000000" text-anchor="middle" style="white-space: pre;" direction="ltr" dominant-baseline="text-before-edge">C1</text></g><g mask="url(#mask-dz34dYSDIGq_V2RPTOqxH)" stroke-linecap="round"><g transform="translate(2239.05886753273 1491.492871880419) rotate(0 97.88334566028539 -3.4733368211911397)"><path d="M2.17 -0.17 C34.77 -1.07, 164.06 -2.3, 195.87 -3.2 M-0.1 -2.73 C32.12 -4.55, 160.63 -6.85, 193.71 -6.77" stroke="#0b7285" stroke-width="1" fill="none"></path></g><g transform="translate(2239.05886753273 1491.492871880419) rotate(0 97.88334566028539 -3.4733368211911397)"><path d="M165.38 3.98 C177.91 -3.79, 183.22 0.44, 191.48 -6.36 M166.44 2.72 C172.05 0.12, 181.07 -2.5, 194.2 -7.19" stroke="#0b7285" stroke-width="1" fill="none"></path></g><g transform="translate(2239.05886753273 1491.492871880419) rotate(0 97.88334566028539 -3.4733368211911397)"><path d="M165.18 -16.54 C178.09 -17.98, 183.47 -7.42, 191.48 -6.36 M166.24 -17.8 C172.1 -14.21, 181.18 -10.64, 194.2 -7.19" stroke="#0b7285" stroke-width="1" fill="none"></path></g></g><mask id="mask-dz34dYSDIGq_V2RPTOqxH"><rect x="0" y="0" fill="#fff" width="2534.7731532470157" height="1597.3357584984003"></rect><rect x="2297.226557264873" y="1472.4714285714283" fill="#000" width="79.37890625" height="32.199999999999996" opacity="1"></rect></mask><g transform="translate(2297.226557264873 1472.471428571428) rotate(0 39.71565592814227 15.548106487799544)"><text x="39.689453125" y="0" font-family="Helvetica, Segoe UI Emoji" font-size="28px" fill="#0b7285" text-anchor="middle" style="white-space: pre;" direction="ltr" dominant-baseline="text-before-edge">sibling</text></g><g mask="url(#mask-tqjGWHbXUC4L2nkUW2CEC)" stroke-linecap="round"><g transform="translate(2091.734512655796 1275.7142857142853) rotate(0 0.9017358293147026 79.28571428571433)"><path d="M0 0 C0.3 26.43, 1.5 132.14, 1.8 158.57 M0 0 C0.3 26.43, 1.5 132.14, 1.8 158.57" stroke="#2b8a3e" stroke-width="1" fill="none"></path></g><g transform="translate(2091.734512655796 1275.7142857142853) rotate(0 0.9017358293147026 79.28571428571433)"><path d="M-8.78 130.5 C-4.75 141.19, -0.71 151.89, 1.8 158.57 M-8.78 130.5 C-5.36 139.56, -1.95 148.62, 1.8 158.57" stroke="#2b8a3e" stroke-width="1" fill="none"></path></g><g transform="translate(2091.734512655796 1275.7142857142853) rotate(0 0.9017358293147026 79.28571428571433)"><path d="M11.74 130.27 C7.96 141.05, 4.17 151.83, 1.8 158.57 M11.74 130.27 C8.54 139.4, 5.33 148.53, 1.8 158.57" stroke="#2b8a3e" stroke-width="1" fill="none"></path></g></g><mask id="mask-tqjGWHbXUC4L2nkUW2CEC"><rect x="0" y="0" fill="#fff" width="2193.5379843144256" height="1534.285714285714"></rect><rect x="2063.8432797351106" y="1338.8999999999996" fill="#000" width="57.5859375" height="32.199999999999996" opacity="1"></rect></mask><g transform="translate(2063.8432797351106 1338.8999999999996) rotate(0 28.79296875 16.100000000000023)"><text x="28.79296875" y="0" font-family="Helvetica, Segoe UI Emoji" font-size="28px" fill="#2b8a3e" text-anchor="middle" style="white-space: pre;" direction="ltr" dominant-baseline="text-before-edge">child</text></g><g mask="url(#mask-6lEoOhF6AgHFvoRM6iHr_)" stroke-linecap="round"><g transform="translate(2587.3910683587783 1424.285714285714) rotate(0 -172.5492615698779 -111.94820847811133)"><path d="M2.58 -2.55 C-21.66 -24.29, -86.98 -95.38, -145.11 -132.64 C-203.25 -169.91, -312.3 -210.46, -346.23 -226.14 M0.53 2.24 C-24.08 -18.93, -89.12 -92.15, -147.15 -129.67 C-205.19 -167.2, -314.02 -207.15, -347.67 -222.93" stroke="#e67700" stroke-width="1" fill="none"></path></g><g transform="translate(2587.3910683587783 1424.285714285714) rotate(0 -172.5492615698779 -111.94820847811133)"><path d="M-321.35 -220.85 C-328.75 -220.34, -336.08 -224.33, -348.27 -224.64 M-316.95 -220.5 C-324.26 -221.51, -329.91 -220.9, -348.21 -224.03" stroke="#e67700" stroke-width="1" fill="none"></path></g><g transform="translate(2587.3910683587783 1424.285714285714) rotate(0 -172.5492615698779 -111.94820847811133)"><path d="M-329.36 -201.96 C-333.97 -207.48, -338.81 -217.35, -348.27 -224.64 M-324.97 -201.6 C-330.61 -206.66, -334.51 -210.17, -348.21 -224.03" stroke="#e67700" stroke-width="1" fill="none"></path></g></g><mask id="mask-6lEoOhF6AgHFvoRM6iHr_"><rect x="0" y="0" fill="#fff" width="3034.294697756256" height="1750.606703799818"></rect><rect x="2405.343744764872" y="1276.7571428571428" fill="#000" width="73.14453125" height="32.199999999999996" opacity="1"></rect></mask><g transform="translate(2405.343744764872 1276.7571428571428) rotate(0 9.498062024028286 35.580362950459914)"><text x="36.572265625" y="0" font-family="Helvetica, Segoe UI Emoji" font-size="28px" fill="#e67700" text-anchor="middle" style="white-space: pre;" direction="ltr" dominant-baseline="text-before-edge">return</text></g><g mask="url(#mask-Mzj-iobITLsYii81h_oEn)" stroke-linecap="round"><g transform="translate(1944.7731532470152 1507.1428571428569) rotate(0 -56.33196736644618 -149.86726450723188)"><path d="M-0.18 -0.74 C-18.77 -22.72, -110.82 -82.14, -111.67 -131.85 C-112.52 -181.56, -22.75 -271.52, -5.27 -299 M-3.71 -3.6 C-22.43 -26.45, -111.97 -87.56, -112.49 -136.32 C-113.01 -185.07, -24.46 -268.55, -6.83 -296.12" stroke="#e67700" stroke-width="1" fill="none"></path></g><g transform="translate(1944.7731532470152 1507.1428571428569) rotate(0 -56.33196736644618 -149.86726450723188)"><path d="M-17.81 -264.07 C-12.39 -275.54, -11.49 -286.05, -4.18 -294.84 M-16.68 -269.34 C-14.8 -274.96, -11.5 -284.64, -7.79 -297.17" stroke="#e67700" stroke-width="1" fill="none"></path></g><g transform="translate(1944.7731532470152 1507.1428571428569) rotate(0 -56.33196736644618 -149.86726450723188)"><path d="M-33.68 -277.08 C-23.56 -284.68, -17.96 -291.33, -4.18 -294.84 M-32.55 -282.35 C-25.93 -283.81, -17.71 -289.47, -7.79 -297.17" stroke="#e67700" stroke-width="1" fill="none"></path></g></g><mask id="mask-Mzj-iobITLsYii81h_oEn"><rect x="0" y="0" fill="#fff" width="2159.0588675327294" height="1905.7142857142853"></rect><rect x="1793.915173336301" y="1358.185714285714" fill="#000" width="73.14453125" height="32.199999999999996" opacity="1"></rect></mask><g transform="translate(1793.915173336301 1358.185714285714) rotate(0 94.52601254426804 -0.9101216500890814)"><text x="36.572265625" y="0" font-family="Helvetica, Segoe UI Emoji" font-size="28px" fill="#e67700" text-anchor="middle" style="white-space: pre;" direction="ltr" dominant-baseline="text-before-edge">return</text></g><g mask="url(#mask-k_OSJ-YZcb3Ln3rL08LBV)" stroke-linecap="round"><g transform="translate(1931.003967350292 1194.152978792946) rotate(0 -45.090677801092625 -130.86795495314504)"><path d="M2.45 0.02 C-14.94 -16.74, -103.75 -57, -102.16 -100.62 C-100.56 -144.25, -6.59 -235.53, 12 -261.75 M0.33 -2.44 C-16.38 -20.07, -98.75 -62.4, -96.93 -105.2 C-95.1 -148, -6.49 -233.02, 11.27 -259.25" stroke="#e67700" stroke-width="1" fill="none"></path></g><g transform="translate(1931.003967350292 1194.152978792946) rotate(0 -45.090677801092625 -130.86795495314504)"><path d="M1.03 -234.15 C6.05 -239.03, 7.17 -253.39, 15.05 -260.69 M1.43 -232.04 C3.68 -243.59, 8.52 -254.8, 12.85 -258.18" stroke="#e67700" stroke-width="1" fill="none"></path></g><g transform="translate(1931.003967350292 1194.152978792946) rotate(0 -45.090677801092625 -130.86795495314504)"><path d="M-14.69 -247.34 C-3.75 -247.52, 3.31 -256.9, 15.05 -260.69 M-14.29 -245.24 C-5.85 -251.62, 5.08 -257.72, 12.85 -258.18" stroke="#e67700" stroke-width="1" fill="none"></path></g></g><mask id="mask-k_OSJ-YZcb3Ln3rL08LBV"><rect x="0" y="0" fill="#fff" width="2141.003967350292" height="1554.784864207777"></rect><rect x="1794.431701725292" y="1076.6244073643745" fill="#000" width="73.14453125" height="32.199999999999996" opacity="1"></rect></mask><g transform="translate(1794.431701725292 1076.6244073643745) rotate(0 91.48158782390738 -13.339383524573577)"><text x="36.572265625" y="0" font-family="Helvetica, Segoe UI Emoji" font-size="28px" fill="#e67700" text-anchor="middle" style="white-space: pre;" direction="ltr" dominant-baseline="text-before-edge">return</text></g><g mask="url(#mask-8mUxXQpakjibNQ5x_JQwe)" stroke-linecap="round"><g transform="translate(1933.4895885684618 909.8284868937251) rotate(0 -56.18741910674919 -124.29776701651781)"><path d="M0.44 0.09 C-18.64 -18.7, -113.67 -69.15, -113.55 -110.61 C-113.43 -152.07, -17.68 -225.93, 1.17 -248.69 M-2.76 -2.32 C-21.06 -21.01, -108.76 -67.41, -108.29 -108.09 C-107.83 -148.77, -18.03 -223.68, 0 -246.42" stroke="#e67700" stroke-width="1" fill="none"></path></g><g transform="translate(1933.4895885684618 909.8284868937251) rotate(0 -56.18741910674919 -124.29776701651781)"><path d="M-12.13 -222.07 C-11.5 -226.57, -6.7 -238.06, -0.04 -245.82 M-11.33 -218.57 C-7.47 -227.95, -6.12 -236.66, 0.39 -247.52" stroke="#e67700" stroke-width="1" fill="none"></path></g><g transform="translate(1933.4895885684618 909.8284868937251) rotate(0 -56.18741910674919 -124.29776701651781)"><path d="M-26.86 -236.36 C-21.09 -236.12, -11.35 -242.83, -0.04 -245.82 M-26.06 -232.86 C-17.39 -237.54, -11.42 -241.76, 0.39 -247.52" stroke="#e67700" stroke-width="1" fill="none"></path></g></g><mask id="mask-8mUxXQpakjibNQ5x_JQwe"><rect x="0" y="0" fill="#fff" width="2144.9181599970334" height="1256.9621043988636"></rect><rect x="1785.4887515148903" y="785.1662979600148" fill="#000" width="73.14453125" height="32.199999999999996" opacity="1"></rect></mask><g transform="translate(1785.4887515148905 785.1662979600148) rotate(0 91.81341794682214 0.36442191719243056)"><text x="36.572265625" y="0" font-family="Helvetica, Segoe UI Emoji" font-size="28px" fill="#e67700" text-anchor="middle" style="white-space: pre;" direction="ltr" dominant-baseline="text-before-edge">return</text></g><g stroke-linecap="round" transform="translate(176.64749697022012 609.3571428571427) rotate(0 140.5 57)"><path d="M28.5 0 M28.5 0 C106.26 -0.3, 182.47 0.9, 252.5 0 M28.5 0 C103.89 1.01, 179.52 0.11, 252.5 0 M252.5 0 C270.13 0.64, 280.4 9.39, 281 28.5 M252.5 0 C269.67 0.99, 280.8 11.51, 281 28.5 M281 28.5 C283.09 49.88, 280.09 72.69, 281 85.5 M281 28.5 C280.22 43.56, 281.16 56.9, 281 85.5 M281 85.5 C279.75 105.8, 270.33 114.38, 252.5 114 M281 85.5 C280.25 105.13, 273.14 112.36, 252.5 114 M252.5 114 C170.15 116, 89.86 115.39, 28.5 114 M252.5 114 C185.8 113.69, 118.53 113.95, 28.5 114 M28.5 114 C10.09 112.06, 1.97 106.03, 0 85.5 M28.5 114 C11.31 115.99, -0.82 105.88, 0 85.5 M0 85.5 C-0.9 65.34, -1.97 43.52, 0 28.5 M0 85.5 C0.53 67.2, -0.53 49.14, 0 28.5 M0 28.5 C1.57 7.64, 8.71 -1.1, 28.5 0 M0 28.5 C-1.9 11.07, 11.18 -1.1, 28.5 0" stroke="#000000" stroke-width="1" fill="none"></path></g><g transform="translate(261.1269891577201 650.2571428571428) rotate(0 56.0205078125 16.100000000000023)"><text x="56.0205078125" y="0" font-family="Helvetica, Segoe UI Emoji" font-size="28px" fill="#000000" text-anchor="middle" style="white-space: pre;" direction="ltr" dominant-baseline="text-before-edge">rootFiber</text></g><g mask="url(#mask-Fu7ebrnozI20LirYFlRa8)" stroke-linecap="round"><g transform="translate(317.1133051475442 723.1666666666665) rotate(0 0.034191822676461925 79.64285714285722)"><path d="M0 0 C0.01 26.55, 0.06 132.74, 0.07 159.29 M0 0 C0.01 26.55, 0.06 132.74, 0.07 159.29" stroke="#2b8a3e" stroke-width="1" fill="none"></path></g><g transform="translate(317.1133051475442 723.1666666666665) rotate(0 0.034191822676461925 79.64285714285722)"><path d="M-10.2 131.1 C-6.94 140.04, -3.68 148.99, 0.07 159.29 M-10.2 131.1 C-8.06 136.99, -5.91 142.88, 0.07 159.29" stroke="#2b8a3e" stroke-width="1" fill="none"></path></g><g transform="translate(317.1133051475442 723.1666666666665) rotate(0 0.034191822676461925 79.64285714285722)"><path d="M10.32 131.09 C7.06 140.04, 3.81 148.99, 0.07 159.29 M10.32 131.09 C8.18 136.98, 6.03 142.88, 0.07 159.29" stroke="#2b8a3e" stroke-width="1" fill="none"></path></g></g><mask id="mask-Fu7ebrnozI20LirYFlRa8"><rect x="0" y="0" fill="#fff" width="417.18168879289715" height="982.452380952381"></rect><rect x="288.3545282202207" y="786.709523809524" fill="#000" width="57.5859375" height="32.199999999999996" opacity="1"></rect></mask><g transform="translate(288.3545282202207 786.709523809524) rotate(0 28.79296875 16.099999999999795)"><text x="28.79296875" y="0" font-family="Helvetica, Segoe UI Emoji" font-size="28px" fill="#2b8a3e" text-anchor="middle" style="white-space: pre;" direction="ltr" dominant-baseline="text-before-edge">child</text></g><g stroke-linecap="round" transform="translate(176.64749697022012 891.1666666666665) rotate(0 140.5 57)"><path d="M28.5 0 M28.5 0 C86.1 0, 143.69 0, 252.5 0 M28.5 0 C75.31 0, 122.12 0, 252.5 0 M252.5 0 C271.5 0, 281 9.5, 281 28.5 M252.5 0 C271.5 0, 281 9.5, 281 28.5 M281 28.5 C281 40.01, 281 51.52, 281 85.5 M281 28.5 C281 48.49, 281 68.48, 281 85.5 M281 85.5 C281 104.5, 271.5 114, 252.5 114 M281 85.5 C281 104.5, 271.5 114, 252.5 114 M252.5 114 C196.97 114, 141.45 114, 28.5 114 M252.5 114 C177.8 114, 103.1 114, 28.5 114 M28.5 114 C9.5 114, 0 104.5, 0 85.5 M28.5 114 C9.5 114, 0 104.5, 0 85.5 M0 85.5 C0 67.37, 0 49.24, 0 28.5 M0 85.5 C0 72.63, 0 59.76, 0 28.5 M0 28.5 C0 9.5, 9.5 0, 28.5 0 M0 28.5 C0 9.5, 9.5 0, 28.5 0" stroke="#000000" stroke-width="1" fill="none"></path></g><g transform="translate(307.8096063452201 932.0666666666666) rotate(0 9.337890625 16.100000000000023)"><text x="9.337890625" y="0" font-family="Helvetica, Segoe UI Emoji" font-size="28px" fill="#000000" text-anchor="middle" style="white-space: pre;" direction="ltr" dominant-baseline="text-before-edge">A</text></g><g stroke-linecap="round" transform="translate(176.64749697022012 1160.4523809523812) rotate(0 140.5 57)"><path d="M28.5 0 M28.5 0 C106.92 0, 185.34 0, 252.5 0 M28.5 0 C78.85 0, 129.2 0, 252.5 0 M252.5 0 C271.5 0, 281 9.5, 281 28.5 M252.5 0 C271.5 0, 281 9.5, 281 28.5 M281 28.5 C281 51.27, 281 74.05, 281 85.5 M281 28.5 C281 43.69, 281 58.88, 281 85.5 M281 85.5 C281 104.5, 271.5 114, 252.5 114 M281 85.5 C281 104.5, 271.5 114, 252.5 114 M252.5 114 C172.95 114, 93.4 114, 28.5 114 M252.5 114 C196.31 114, 140.13 114, 28.5 114 M28.5 114 C9.5 114, 0 104.5, 0 85.5 M28.5 114 C9.5 114, 0 104.5, 0 85.5 M0 85.5 C0 67, 0 48.5, 0 28.5 M0 85.5 C0 70.76, 0 56.02, 0 28.5 M0 28.5 C0 9.5, 9.5 0, 28.5 0 M0 28.5 C0 9.5, 9.5 0, 28.5 0" stroke="#000000" stroke-width="1" fill="none"></path></g><g transform="translate(307.8096063452201 1201.3523809523813) rotate(0 9.337890625 16.100000000000023)"><text x="9.337890625" y="0" font-family="Helvetica, Segoe UI Emoji" font-size="28px" fill="#000000" text-anchor="middle" style="white-space: pre;" direction="ltr" dominant-baseline="text-before-edge">B</text></g><g mask="url(#mask-3jICdawN_qweRVjmVxVWz)" stroke-linecap="round"><g transform="translate(316.8817675735297 1006.7380952380954) rotate(0 0.2657293966907446 74.64285714285711)"><path d="M0 0 C0.09 24.88, 0.44 124.4, 0.53 149.29 M0 0 C0.09 24.88, 0.44 124.4, 0.53 149.29" stroke="#2b8a3e" stroke-width="1" fill="none"></path></g><g transform="translate(316.8817675735297 1006.7380952380954) rotate(0 0.2657293966907446 74.64285714285711)"><path d="M-9.83 121.13 C-6.42 130.39, -3.02 139.64, 0.53 149.29 M-9.83 121.13 C-5.74 132.24, -1.65 143.36, 0.53 149.29" stroke="#2b8a3e" stroke-width="1" fill="none"></path></g><g transform="translate(316.8817675735297 1006.7380952380954) rotate(0 0.2657293966907446 74.64285714285711)"><path d="M10.69 121.06 C7.35 130.34, 4.01 139.62, 0.53 149.29 M10.69 121.06 C6.68 132.2, 2.67 143.34, 0.53 149.29" stroke="#2b8a3e" stroke-width="1" fill="none"></path></g></g><mask id="mask-3jICdawN_qweRVjmVxVWz"><rect x="0" y="0" fill="#fff" width="417.4132263669112" height="1256.0238095238096"></rect><rect x="288.35452822022046" y="1065.2809523809526" fill="#000" width="57.5859375" height="32.199999999999996" opacity="1"></rect></mask><g transform="translate(288.35452822022046 1065.2809523809526) rotate(0 28.79296875 16.09999999999991)"><text x="28.79296875" y="0" font-family="Helvetica, Segoe UI Emoji" font-size="28px" fill="#2b8a3e" text-anchor="middle" style="white-space: pre;" direction="ltr" dominant-baseline="text-before-edge">child</text></g><g stroke-linecap="round" transform="translate(693.0701160178405 891.1666666666665) rotate(0 140.5 57)"><path d="M28.5 0 M28.5 0 C88.52 0, 148.54 0, 252.5 0 M28.5 0 C116.91 0, 205.32 0, 252.5 0 M252.5 0 C271.5 0, 281 9.5, 281 28.5 M252.5 0 C271.5 0, 281 9.5, 281 28.5 M281 28.5 C281 45.7, 281 62.9, 281 85.5 M281 28.5 C281 43.16, 281 57.82, 281 85.5 M281 85.5 C281 104.5, 271.5 114, 252.5 114 M281 85.5 C281 104.5, 271.5 114, 252.5 114 M252.5 114 C164.52 114, 76.54 114, 28.5 114 M252.5 114 C170.01 114, 87.52 114, 28.5 114 M28.5 114 C9.5 114, 0 104.5, 0 85.5 M28.5 114 C9.5 114, 0 104.5, 0 85.5 M0 85.5 C0 63.84, 0 42.17, 0 28.5 M0 85.5 C0 70.07, 0 54.63, 0 28.5 M0 28.5 C0 9.5, 9.5 0, 28.5 0 M0 28.5 C0 9.5, 9.5 0, 28.5 0" stroke="#000000" stroke-width="1" fill="none"></path></g><g transform="translate(816.4460925803405 932.0666666666666) rotate(0 17.1240234375 16.100000000000023)"><text x="17.1240234375" y="0" font-family="Helvetica, Segoe UI Emoji" font-size="28px" fill="#000000" text-anchor="middle" style="white-space: pre;" direction="ltr" dominant-baseline="text-before-edge">A1</text></g><g stroke-linecap="round" transform="translate(1197.3558303035543 891.1666666666665) rotate(0 140.5 57)"><path d="M28.5 0 M28.5 0 C92.23 0, 155.95 0, 252.5 0 M28.5 0 C90.83 0, 153.17 0, 252.5 0 M252.5 0 C271.5 0, 281 9.5, 281 28.5 M252.5 0 C271.5 0, 281 9.5, 281 28.5 M281 28.5 C281 50.57, 281 72.63, 281 85.5 M281 28.5 C281 42.61, 281 56.72, 281 85.5 M281 85.5 C281 104.5, 271.5 114, 252.5 114 M281 85.5 C281 104.5, 271.5 114, 252.5 114 M252.5 114 C175.69 114, 98.89 114, 28.5 114 M252.5 114 C203.29 114, 154.08 114, 28.5 114 M28.5 114 C9.5 114, 0 104.5, 0 85.5 M28.5 114 C9.5 114, 0 104.5, 0 85.5 M0 85.5 C0 66.23, 0 46.96, 0 28.5 M0 85.5 C0 63.42, 0 41.34, 0 28.5 M0 28.5 C0 9.5, 9.5 0, 28.5 0 M0 28.5 C0 9.5, 9.5 0, 28.5 0" stroke="#000000" stroke-width="1" fill="none"></path></g><g transform="translate(1320.7318068660543 932.0666666666666) rotate(0 17.1240234375 16.100000000000023)"><text x="17.1240234375" y="0" font-family="Helvetica, Segoe UI Emoji" font-size="28px" fill="#000000" text-anchor="middle" style="white-space: pre;" direction="ltr" dominant-baseline="text-before-edge">A2</text></g><g mask="url(#mask-BgCsd5x_xsieK1SgjtUPv)" stroke-linecap="round"><g transform="translate(460.71297316069536 947.1864924203242) rotate(0 115.67857142857204 0.9801742463425853)"><path d="M0 0 C38.56 0.33, 192.8 1.63, 231.36 1.96 M0 0 C38.56 0.33, 192.8 1.63, 231.36 1.96" stroke="#0b7285" stroke-width="1" fill="none"></path></g><g transform="translate(460.71297316069536 947.1864924203242) rotate(0 115.67857142857204 0.9801742463425853)"><path d="M203.08 11.98 C209.8 9.6, 216.51 7.22, 231.36 1.96 M203.08 11.98 C214.03 8.1, 224.99 4.22, 231.36 1.96" stroke="#0b7285" stroke-width="1" fill="none"></path></g><g transform="translate(460.71297316069536 947.1864924203242) rotate(0 115.67857142857204 0.9801742463425853)"><path d="M203.25 -8.54 C209.93 -6.04, 216.61 -3.55, 231.36 1.96 M203.25 -8.54 C214.14 -4.47, 225.03 -0.4, 231.36 1.96" stroke="#0b7285" stroke-width="1" fill="none"></path></g></g><mask id="mask-BgCsd5x_xsieK1SgjtUPv"><rect x="0" y="0" fill="#fff" width="792.0701160178394" height="1049.1468409130093"></rect><rect x="536.7020914642674" y="932.0666666666668" fill="#000" width="79.37890625" height="32.199999999999996" opacity="1"></rect></mask><g transform="translate(536.7020914642675 932.0666666666668) rotate(0 39.68945312499997 16.09999999999991)"><text x="39.689453125" y="0" font-family="Helvetica, Segoe UI Emoji" font-size="28px" fill="#0b7285" text-anchor="middle" style="white-space: pre;" direction="ltr" dominant-baseline="text-before-edge">sibling</text></g><g mask="url(#mask-kEicgopz3s4P1QBflQWqR)" stroke-linecap="round"><g transform="translate(977.8558303035543 948.1073546962011) rotate(0 108.57142857142844 0.059311970465387276)"><path d="M0 0 C36.19 0.02, 180.95 0.1, 217.14 0.12 M0 0 C36.19 0.02, 180.95 0.1, 217.14 0.12" stroke="#0b7285" stroke-width="1" fill="none"></path></g><g transform="translate(977.8558303035543 948.1073546962011) rotate(0 108.57142857142844 0.059311970465387276)"><path d="M188.95 10.36 C195.39 8.02, 201.83 5.68, 217.14 0.12 M188.95 10.36 C198.51 6.89, 208.08 3.41, 217.14 0.12" stroke="#0b7285" stroke-width="1" fill="none"></path></g><g transform="translate(977.8558303035543 948.1073546962011) rotate(0 108.57142857142844 0.059311970465387276)"><path d="M188.96 -10.16 C195.39 -7.81, 201.83 -5.46, 217.14 0.12 M188.96 -10.16 C198.52 -6.67, 208.08 -3.19, 217.14 0.12" stroke="#0b7285" stroke-width="1" fill="none"></path></g></g><mask id="mask-kEicgopz3s4P1QBflQWqR"><rect x="0" y="0" fill="#fff" width="1294.9986874464112" height="1048.225978637132"></rect><rect x="1046.7378057499827" y="932.0666666666666" fill="#000" width="79.37890625" height="32.199999999999996" opacity="1"></rect></mask><g transform="translate(1046.7378057499827 932.0666666666666) rotate(0 39.689453125 16.09999999999991)"><text x="39.689453125" y="0" font-family="Helvetica, Segoe UI Emoji" font-size="28px" fill="#0b7285" text-anchor="middle" style="white-space: pre;" direction="ltr" dominant-baseline="text-before-edge">sibling</text></g><g mask="url(#mask-K_FSr5Apq3rYCLSsKy7iY)" stroke-linecap="round"><g transform="translate(838.0905762962202 888.4523809523807) rotate(0 -186.21031866062947 -110.48016124152173)"><path d="M0.97 2.45 C-11.38 -18.22, -12 -85.78, -74.1 -122.6 C-136.19 -159.42, -322.36 -202.18, -371.61 -218.47 M-1.94 1.31 C-14.57 -19.09, -13.82 -82.03, -75.73 -119.48 C-137.64 -156.93, -324.7 -206.95, -373.39 -223.41" stroke="#e67700" stroke-width="1" fill="none"></path></g><g transform="translate(838.0905762962202 888.4523809523807) rotate(0 -186.21031866062947 -110.48016124152173)"><path d="M-339.94 -223.4 C-353.76 -224.23, -359.86 -220.89, -374.53 -219.92 M-342.05 -224.5 C-355.82 -225.69, -367.71 -224.43, -372.29 -223.42" stroke="#e67700" stroke-width="1" fill="none"></path></g><g transform="translate(838.0905762962202 888.4523809523807) rotate(0 -186.21031866062947 -110.48016124152173)"><path d="M-345.93 -203.78 C-358.16 -210.54, -362.45 -213.1, -374.53 -219.92 M-348.04 -204.87 C-359.43 -213.44, -369.06 -219.6, -372.29 -223.42" stroke="#e67700" stroke-width="1" fill="none"></path></g></g><mask id="mask-K_FSr5Apq3rYCLSsKy7iY"><rect x="0" y="0" fill="#fff" width="1309.7538937174581" height="1208.0238095238092"></rect><rect x="726.3149932499823" y="750.6923447860158" fill="#000" width="73.14453125" height="32.199999999999996" opacity="1"></rect></mask><g transform="translate(726.3149932499823 750.6923447860158) rotate(0 -74.43473561439157 27.27987492484317)"><text x="36.572265625" y="0" font-family="Helvetica, Segoe UI Emoji" font-size="28px" fill="#e67700" text-anchor="middle" style="white-space: pre;" direction="ltr" dominant-baseline="text-before-edge">return</text></g><g mask="url(#mask-HTVoVnjyt2gCal6gmWLcc)" stroke-linecap="round"><g transform="translate(1318.5459721327916 887.3095238095234) rotate(0 -427.6729243441201 -108.37950405139986)"><path d="M0.05 1.1 C-48.18 -19.84, -145.8 -90.8, -288.3 -126.56 C-430.79 -162.33, -759.94 -198.46, -854.91 -213.52 M-3.37 -0.77 C-51.89 -21.22, -147.41 -87.19, -289.42 -123.37 C-431.42 -159.55, -760.64 -202.59, -855.4 -217.86" stroke="#e67700" stroke-width="1" fill="none"></path></g><g transform="translate(1318.5459721327916 887.3095238095234) rotate(0 -427.6729243441201 -108.37950405139986)"><path d="M-824.44 -220.94 C-837.17 -218.34, -842.88 -220.9, -857.11 -215.08 M-827.62 -224.26 C-834.5 -222.25, -847.13 -219.61, -853.59 -219.8" stroke="#e67700" stroke-width="1" fill="none"></path></g><g transform="translate(1318.5459721327916 887.3095238095234) rotate(0 -427.6729243441201 -108.37950405139986)"><path d="M-827.44 -200.64 C-839.01 -204.93, -843.71 -214.38, -857.11 -215.08 M-830.62 -203.96 C-836.32 -208.5, -847.97 -212.45, -853.59 -219.8" stroke="#e67700" stroke-width="1" fill="none"></path></g></g><mask id="mask-HTVoVnjyt2gCal6gmWLcc"><rect x="0" y="0" fill="#fff" width="2275.8992817142007" height="1203.013306075316"></rect><rect x="991.6203969263825" y="745.4424504044905" fill="#000" width="73.14453125" height="32.199999999999996" opacity="1"></rect></mask><g transform="translate(991.6203969263827 745.4424504044905) rotate(0 -100.74734913771118 33.487569353633035)"><text x="36.572265625" y="0" font-family="Helvetica, Segoe UI Emoji" font-size="28px" fill="#e67700" text-anchor="middle" style="white-space: pre;" direction="ltr" dominant-baseline="text-before-edge">return</text></g><g stroke-linecap="round" transform="translate(176.64749697022012 1433.3095238095234) rotate(0 140.5 57)"><path d="M28.5 0 M28.5 0 C112.14 0, 195.79 0, 252.5 0 M28.5 0 C101.16 0, 173.82 0, 252.5 0 M252.5 0 C271.5 0, 281 9.5, 281 28.5 M252.5 0 C271.5 0, 281 9.5, 281 28.5 M281 28.5 C281 43.73, 281 58.96, 281 85.5 M281 28.5 C281 40.46, 281 52.41, 281 85.5 M281 85.5 C281 104.5, 271.5 114, 252.5 114 M281 85.5 C281 104.5, 271.5 114, 252.5 114 M252.5 114 C163.1 114, 73.7 114, 28.5 114 M252.5 114 C189.05 114, 125.59 114, 28.5 114 M28.5 114 C9.5 114, 0 104.5, 0 85.5 M28.5 114 C9.5 114, 0 104.5, 0 85.5 M0 85.5 C0 68.22, 0 50.93, 0 28.5 M0 85.5 C0 64.18, 0 42.85, 0 28.5 M0 28.5 C0 9.5, 9.5 0, 28.5 0 M0 28.5 C0 9.5, 9.5 0, 28.5 0" stroke="#000000" stroke-width="1" fill="none"></path></g><g transform="translate(307.0371454077201 1474.2095238095235) rotate(0 10.1103515625 16.100000000000023)"><text x="10.1103515625" y="0" font-family="Helvetica, Segoe UI Emoji" font-size="28px" fill="#000000" text-anchor="middle" style="white-space: pre;" direction="ltr" dominant-baseline="text-before-edge">C</text></g><g stroke-linecap="round" transform="translate(671.641544589268 1433.3095238095234) rotate(0 140.5 57)"><path d="M28.5 0 M28.5 0 C90.29 -4.47, 148.6 -5.44, 252.5 0 M28.5 0 C89.7 0.6, 155.89 -1.65, 252.5 0 M252.5 0 C274.18 -1.97, 284.71 12.69, 281 28.5 M252.5 0 C269.99 3.88, 282.97 13.46, 281 28.5 M281 28.5 C278.17 42.92, 278.57 56.76, 281 85.5 M281 28.5 C281.74 48.2, 282.79 71.02, 281 85.5 M281 85.5 C277.73 102.84, 274.7 117.67, 252.5 114 M281 85.5 C285.56 108.62, 273.25 111.24, 252.5 114 M252.5 114 C162.42 115.08, 76.49 114.45, 28.5 114 M252.5 114 C176 116.09, 102.08 115.02, 28.5 114 M28.5 114 C11.22 111.46, -1.71 108.18, 0 85.5 M28.5 114 C9.65 115.26, 2.04 102.51, 0 85.5 M0 85.5 C2.84 67.1, -3.5 44.05, 0 28.5 M0 85.5 C1.51 65.46, 0.76 48.58, 0 28.5 M0 28.5 C0.03 6.54, 13.25 -0.95, 28.5 0 M0 28.5 C-2.05 4.97, 11.38 0.02, 28.5 0" stroke="#000000" stroke-width="1" fill="none"></path></g><g transform="translate(794.245060214268 1474.2095238095235) rotate(0 17.896484375 16.100000000000023)"><text x="17.896484375" y="0" font-family="Helvetica, Segoe UI Emoji" font-size="28px" fill="#000000" text-anchor="middle" style="white-space: pre;" direction="ltr" dominant-baseline="text-before-edge">C1</text></g><g mask="url(#mask-hwPnc3U2yyZXUozZxT75p)" stroke-linecap="round"><g transform="translate(463.5701160178403 1493.2309671185142) rotate(0 97.50185137619931 -3.1965199356044423)"><path d="M-2.25 -0.54 C30.87 -1.27, 164.73 -5.13, 197.26 -5.86 M1.72 -3.29 C34.74 -3.41, 163.1 -1.13, 195.86 -2.24" stroke="#0b7285" stroke-width="1" fill="none"></path></g><g transform="translate(463.5701160178403 1493.2309671185142) rotate(0 97.50185137619931 -3.1965199356044423)"><path d="M166.95 10.36 C174.78 2.05, 183.12 7.08, 191.97 0.45 M167.06 9.84 C175.44 6.82, 180.45 3.86, 195.14 -4.04" stroke="#0b7285" stroke-width="1" fill="none"></path></g><g transform="translate(463.5701160178403 1493.2309671185142) rotate(0 97.50185137619931 -3.1965199356044423)"><path d="M166.85 -10.16 C174.49 -13.39, 182.85 -3.27, 191.97 0.45 M166.96 -10.68 C175.75 -8.55, 180.78 -6.37, 195.14 -4.04" stroke="#0b7285" stroke-width="1" fill="none"></path></g></g><mask id="mask-hwPnc3U2yyZXUozZxT75p"><rect x="0" y="0" fill="#fff" width="759.2844017321261" height="1599.0738537364955"></rect><rect x="521.7378057499832" y="1474.2095238095235" fill="#000" width="79.37890625" height="32.199999999999996" opacity="1"></rect></mask><g transform="translate(521.7378057499832 1474.2095238095235) rotate(0 39.334161644056366 15.824923373386241)"><text x="39.689453125" y="0" font-family="Helvetica, Segoe UI Emoji" font-size="28px" fill="#0b7285" text-anchor="middle" style="white-space: pre;" direction="ltr" dominant-baseline="text-before-edge">sibling</text></g><g mask="url(#mask--iewkCSUHsgsZHpUH6ZLD)" stroke-linecap="round"><g transform="translate(316.2457611409061 1277.4523809523803) rotate(0 0.9017358293147026 79.28571428571433)"><path d="M0 0 C0.3 26.43, 1.5 132.14, 1.8 158.57 M0 0 C0.3 26.43, 1.5 132.14, 1.8 158.57" stroke="#2b8a3e" stroke-width="1" fill="none"></path></g><g transform="translate(316.2457611409061 1277.4523809523803) rotate(0 0.9017358293147026 79.28571428571433)"><path d="M-8.78 130.5 C-5.02 140.47, -1.26 150.44, 1.8 158.57 M-8.78 130.5 C-4.71 141.29, -0.64 152.08, 1.8 158.57" stroke="#2b8a3e" stroke-width="1" fill="none"></path></g><g transform="translate(316.2457611409061 1277.4523809523803) rotate(0 0.9017358293147026 79.28571428571433)"><path d="M11.74 130.27 C8.21 140.32, 4.68 150.37, 1.8 158.57 M11.74 130.27 C7.92 141.14, 4.1 152.02, 1.8 158.57" stroke="#2b8a3e" stroke-width="1" fill="none"></path></g></g><mask id="mask--iewkCSUHsgsZHpUH6ZLD"><rect x="0" y="0" fill="#fff" width="418.0492327995355" height="1536.023809523809"></rect><rect x="288.3545282202208" y="1340.6380952380946" fill="#000" width="57.5859375" height="32.199999999999996" opacity="1"></rect></mask><g transform="translate(288.3545282202208 1340.6380952380946) rotate(0 28.79296875 16.100000000000023)"><text x="28.79296875" y="0" font-family="Helvetica, Segoe UI Emoji" font-size="28px" fill="#2b8a3e" text-anchor="middle" style="white-space: pre;" direction="ltr" dominant-baseline="text-before-edge">child</text></g><g mask="url(#mask-hnIdhawuFGUNBIjAu1rGL)" stroke-linecap="round"><g transform="translate(811.902316843888 1426.0238095238092) rotate(0 -174.1240599730368 -112.07998135810669)"><path d="M1.88 -1.38 C-22.36 -22.46, -84.59 -92.1, -142.88 -129.19 C-201.16 -166.29, -314.02 -208.17, -347.82 -223.96 M-0.55 4.05 C-25.15 -17.54, -85.44 -94.28, -143.71 -132.99 C-201.97 -171.7, -316.67 -212.27, -350.13 -228.21" stroke="#e67700" stroke-width="1" fill="none"></path></g><g transform="translate(811.902316843888 1426.0238095238092) rotate(0 -174.1240599730368 -112.07998135810669)"><path d="M-322.13 -223.05 C-328.64 -228.23, -340.16 -225.77, -346.68 -230.59 M-319.8 -228.37 C-330.75 -226.4, -341.73 -229.6, -349.66 -229.69" stroke="#e67700" stroke-width="1" fill="none"></path></g><g transform="translate(811.902316843888 1426.0238095238092) rotate(0 -174.1240599730368 -112.07998135810669)"><path d="M-330.07 -204.13 C-333.11 -216.81, -341.53 -221.74, -346.68 -230.59 M-327.74 -209.44 C-335.63 -214.3, -343.69 -224.47, -349.66 -229.69" stroke="#e67700" stroke-width="1" fill="none"></path></g></g><mask id="mask-hnIdhawuFGUNBIjAu1rGL"><rect x="0" y="0" fill="#fff" width="1258.8059462413657" height="1752.3447990379132"></rect><rect x="629.8549932499818" y="1278.495238095238" fill="#000" width="73.14453125" height="32.199999999999996" opacity="1"></rect></mask><g transform="translate(629.8549932499818 1278.495238095238) rotate(0 7.923263620869392 35.44859007046455)"><text x="36.572265625" y="0" font-family="Helvetica, Segoe UI Emoji" font-size="28px" fill="#e67700" text-anchor="middle" style="white-space: pre;" direction="ltr" dominant-baseline="text-before-edge">return</text></g><g mask="url(#mask-_3OdgpsMHH-MoSG33UEEj)" stroke-linecap="round"><g transform="translate(169.2844017321247 1508.880952380952) rotate(0 -55.448459267714114 -149.39533796452514)"><path d="M-0.92 2.36 C-20.2 -19.75, -112.01 -80.61, -113.08 -130.45 C-114.16 -180.28, -25.11 -268.22, -7.39 -296.66 M3.78 1.18 C-16 -21.88, -113.8 -83.76, -114.67 -134.15 C-115.54 -184.54, -19.46 -273.53, -1.46 -301.15" stroke="#e67700" stroke-width="1" fill="none"></path></g><g transform="translate(169.2844017321247 1508.880952380952) rotate(0 -55.448459267714114 -149.39533796452514)"><path d="M-8.37 -271.25 C-4.71 -286.36, -1.39 -296.48, -5.07 -300.43 M-11.25 -274.2 C-9.14 -280.79, -5.83 -285.35, -3.09 -301.98" stroke="#e67700" stroke-width="1" fill="none"></path></g><g transform="translate(169.2844017321247 1508.880952380952) rotate(0 -55.448459267714114 -149.39533796452514)"><path d="M-24.08 -284.46 C-14.04 -294.27, -4.54 -299.21, -5.07 -300.43 M-26.96 -287.41 C-21.35 -291.32, -14.58 -292.98, -3.09 -301.98" stroke="#e67700" stroke-width="1" fill="none"></path></g></g><mask id="mask-_3OdgpsMHH-MoSG33UEEj"><rect x="0" y="0" fill="#fff" width="383.5701160178389" height="1907.4523809523805"></rect><rect x="18.426421821410486" y="1359.9238095238093" fill="#000" width="73.14453125" height="32.199999999999996" opacity="1"></rect></mask><g transform="translate(18.426421821410486 1359.9238095238093) rotate(0 95.4095206430001 -0.4381951073823416)"><text x="36.572265625" y="0" font-family="Helvetica, Segoe UI Emoji" font-size="28px" fill="#e67700" text-anchor="middle" style="white-space: pre;" direction="ltr" dominant-baseline="text-before-edge">return</text></g><g mask="url(#mask-vjYj666EsDaXuQGACGe05)" stroke-linecap="round"><g transform="translate(155.51521583540193 1195.8910740310412) rotate(0 -46.646595856416695 -130.48456984324355)"><path d="M-1.67 1.91 C-18.71 -15.82, -103.04 -59.82, -101.01 -103.96 C-98.98 -148.09, -8.1 -237.1, 10.51 -262.88 M2.62 0.48 C-14.99 -15.77, -104.85 -58.12, -103.79 -101.7 C-102.73 -145.28, -10.24 -234.01, 8.97 -260.99" stroke="#e67700" stroke-width="1" fill="none"></path></g><g transform="translate(155.51521583540193 1195.8910740310412) rotate(0 -46.646595856416695 -130.48456984324355)"><path d="M1.15 -234.35 C-2.06 -241.69, 1.96 -251.18, 11.84 -260.01 M-0.07 -232.76 C-0.83 -240.28, 4.92 -244.31, 10.96 -259.2" stroke="#e67700" stroke-width="1" fill="none"></path></g><g transform="translate(155.51521583540193 1195.8910740310412) rotate(0 -46.646595856416695 -130.48456984324355)"><path d="M-14.43 -247.7 C-12.06 -250.28, -2.7 -255.19, 11.84 -260.01 M-15.65 -246.12 C-12.63 -250.22, -3.16 -251.07, 10.96 -259.2" stroke="#e67700" stroke-width="1" fill="none"></path></g></g><mask id="mask-vjYj666EsDaXuQGACGe05"><rect x="0" y="0" fill="#fff" width="365.51521583540193" height="1556.5229594458722"></rect><rect x="18.942950210401932" y="1078.3625026024697" fill="#000" width="73.14453125" height="32.199999999999996" opacity="1"></rect></mask><g transform="translate(18.942950210401932 1078.3625026024697) rotate(0 89.9256697685833 -12.95599841467208)"><text x="36.572265625" y="0" font-family="Helvetica, Segoe UI Emoji" font-size="28px" fill="#e67700" text-anchor="middle" style="white-space: pre;" direction="ltr" dominant-baseline="text-before-edge">return</text></g><g mask="url(#mask-FxmGIPdjC2uMvnCUL_vNL)" stroke-linecap="round"><g transform="translate(158.00083705357133 911.5665821318203) rotate(0 -56.023107117034286 -123.07710039679228)"><path d="M0.51 -2.25 C-17.8 -19.59, -110.85 -65.45, -110.82 -106.55 C-110.79 -147.66, -17.89 -225.08, 0.69 -248.86 M-2.66 2.7 C-21.19 -15.18, -113.05 -68.91, -112.73 -110.47 C-112.41 -152.04, -19.8 -223.81, -0.75 -246.68" stroke="#e67700" stroke-width="1" fill="none"></path></g><g transform="translate(158.00083705357133 911.5665821318203) rotate(0 -56.023107117034286 -123.07710039679228)"><path d="M-17.01 -218.8 C-6.99 -225.87, -8.88 -233.06, -3.72 -243.65 M-12.19 -217.83 C-7.36 -226.07, -4.57 -237.36, 1.24 -247.27" stroke="#e67700" stroke-width="1" fill="none"></path></g><g transform="translate(158.00083705357133 911.5665821318203) rotate(0 -56.023107117034286 -123.07710039679228)"><path d="M-31.32 -233.51 C-17.79 -236.74, -15.9 -240.05, -3.72 -243.65 M-26.51 -232.54 C-17.52 -236.14, -10.33 -242.91, 1.24 -247.27" stroke="#e67700" stroke-width="1" fill="none"></path></g></g><mask id="mask-FxmGIPdjC2uMvnCUL_vNL"><rect x="0" y="0" fill="#fff" width="369.42940848214266" height="1258.7001996369588"></rect><rect x="10" y="786.90439319811" fill="#000" width="73.14453125" height="32.199999999999996" opacity="1"></rect></mask><g transform="translate(10 786.90439319811) rotate(0 91.97772993653705 1.585088536917965)"><text x="36.572265625" y="0" font-family="Helvetica, Segoe UI Emoji" font-size="28px" fill="#e67700" text-anchor="middle" style="white-space: pre;" direction="ltr" dominant-baseline="text-before-edge">return</text></g><g stroke-linecap="round" transform="translate(98.51124848511 10) rotate(0 191.9999999999999 68)"><path d="M32 0 M32 0 C104.66 1.33, 178.41 -1.51, 352 0 M32 0 C157.23 -0.27, 284.54 0.69, 352 0 M352 0 C374.99 2.23, 381.14 10.74, 384 32 M352 0 C376.66 2.33, 380.6 12.85, 384 32 M384 32 C385.58 49.87, 383.74 75.75, 384 104 M384 32 C385.71 47.5, 384.87 62.65, 384 104 M384 104 C381.73 125.43, 373.49 137.05, 352 136 M384 104 C387.25 126.71, 369.93 134.99, 352 136 M352 136 C228.63 133.09, 108.26 132.74, 32 136 M352 136 C277.68 130.62, 205.09 131.72, 32 136 M32 136 C11.43 139.77, 2.99 124.58, 0 104 M32 136 C6.07 135.71, -1.59 125.66, 0 104 M0 104 C-2.41 78.63, 3.42 51.62, 0 32 M0 104 C-2.18 80.88, -0.55 60.29, 0 32 M0 32 C-1.54 11.4, 12.69 3.89, 32 0 M0 32 C-2.76 6.7, 12.84 -2.58, 32 0" stroke="#0b7285" stroke-width="1" fill="none"></path></g><g stroke-linecap="round" transform="translate(1896.5112484851093 18) rotate(0 191.99999999999977 68)"><path d="M32 0 M32 0 C100.19 3.77, 161.99 -0.33, 352 0 M32 0 C124.27 -4.3, 217.41 -4.32, 352 0 M352 0 C369.73 0.05, 385.13 13.95, 384 32 M352 0 C371.27 2.95, 382.86 14.91, 384 32 M384 32 C381.79 51.84, 384.16 76.02, 384 104 M384 32 C385.9 51.01, 387.08 69.44, 384 104 M384 104 C386.2 127.11, 376.23 134.71, 352 136 M384 104 C382.7 123.88, 376.55 139.9, 352 136 M352 136 C229.49 134.98, 105.1 135.28, 32 136 M352 136 C244.48 132.77, 136.18 134.82, 32 136 M32 136 C8.57 135.44, -0.07 128.12, 0 104 M32 136 C6.55 133.35, 1.12 125.14, 0 104 M0 104 C-1.95 82.65, -4.23 64.26, 0 32 M0 104 C-2.05 79.59, 0.4 53.79, 0 32 M0 32 C-1.01 9.85, 8.61 -0.02, 32 0 M0 32 C3.11 11.04, 9.97 -4.08, 32 0" stroke="#0b7285" stroke-width="1" fill="none"></path></g><g transform="translate(1959.1001156726093 69.89999999999964) rotate(0 129.4111328125 16.09999999999991)"><text x="129.4111328125" y="0" font-family="Helvetica, Segoe UI Emoji" font-size="28px" fill="#0b7285" text-anchor="middle" style="white-space: pre;" direction="ltr" dominant-baseline="text-before-edge">workInProgress Tree</text></g><g mask="url(#mask-W5hCXb5yDvOkAitKrY8SG)" stroke-linecap="round"><g transform="translate(1944.5112484851093 645.9999999999998) rotate(0 -740.3779612604527 -0.7680033203214407)"><path d="M0.36 0.94 C-246.5 0.67, -1234.28 -1.82, -1481.11 -2.48" stroke="#999" stroke-width="1.5" fill="none" stroke-dasharray="8 9"></path></g><g transform="translate(1944.5112484851093 645.9999999999998) rotate(0 -740.3779612604527 -0.7680033203214407)"><path d="M-26.29 9.28 C-20.04 6.87, -12.36 6.25, 1.82 -0.02" stroke="#999" stroke-width="1.5" fill="none"></path></g><g transform="translate(1944.5112484851093 645.9999999999998) rotate(0 -740.3779612604527 -0.7680033203214407)"><path d="M-26.24 -11.24 C-20.15 -7.45, -12.48 -1.85, 1.82 -0.02" stroke="#999" stroke-width="1.5" fill="none"></path></g><g transform="translate(1944.5112484851093 645.9999999999998) rotate(0 -740.3779612604527 -0.7680033203214407)"><path d="M-1451.33 -14.52 C-1462.3 -10.6, -1471.7 -5.05, -1479.65 -3.44" stroke="#999" stroke-width="1.5" fill="none"></path></g><g transform="translate(1944.5112484851093 645.9999999999998) rotate(0 -740.3779612604527 -0.7680033203214407)"><path d="M-1451.38 6 C-1462.2 3.71, -1471.58 3.05, -1479.65 -3.44" stroke="#999" stroke-width="1.5" fill="none"></path></g></g><mask id="mask-W5hCXb5yDvOkAitKrY8SG"><rect x="0" y="0" fill="#fff" width="3524.511248485109" height="747.9999999999998"></rect><rect x="1150.0288266101093" y="628.8999999999999" fill="#000" width="108.96484375" height="32.199999999999996" opacity="1"></rect></mask><g transform="translate(1150.0288266101095 628.8999999999999) rotate(0 54.104460614547065 16.33199667967847)"><text x="54.482421875" y="0" font-family="Helvetica, Segoe UI Emoji" font-size="28px" fill="#999" text-anchor="middle" style="white-space: pre;" direction="ltr" dominant-baseline="text-before-edge">alternate</text></g><g mask="url(#mask-3jTBSyX94B75rsRHioNlU)" stroke-linecap="round"><g transform="translate(2598.8892097455623 1566.9999999999995) rotate(0 -891.1335970167069 134.83859679065193)"><path d="M-0.67 -0.35 C-157.43 44.5, -644.53 268.93, -941.35 270.02 C-1238.17 271.12, -1641.46 50.34, -1781.6 6.23" stroke="#999" stroke-width="1.5" fill="none" stroke-dasharray="8 9"></path></g><g transform="translate(2598.8892097455623 1566.9999999999995) rotate(0 -891.1335970167069 134.83859679065193)"><path d="M-24.54 20.27 C-16.97 14.95, -12.87 9.57, -1.76 -0.53" stroke="#999" stroke-width="1.5" fill="none"></path></g><g transform="translate(2598.8892097455623 1566.9999999999995) rotate(0 -891.1335970167069 134.83859679065193)"><path d="M-31.25 0.88 C-21.97 0.12, -16.3 -0.75, -1.76 -0.53" stroke="#999" stroke-width="1.5" fill="none"></path></g><g transform="translate(2598.8892097455623 1566.9999999999995) rotate(0 -891.1335970167069 134.83859679065193)"><path d="M-1752.2 9.12 C-1756.91 7.64, -1765.23 6.38, -1782.69 6.05" stroke="#999" stroke-width="1.5" fill="none"></path></g><g transform="translate(2598.8892097455623 1566.9999999999995) rotate(0 -891.1335970167069 134.83859679065193)"><path d="M-1759.98 28.12 C-1763.02 22.25, -1769.53 16.57, -1782.69 6.05" stroke="#999" stroke-width="1.5" fill="none"></path></g></g><mask id="mask-3jTBSyX94B75rsRHioNlU"><rect x="0" y="0" fill="#fff" width="4480.889209745562" height="1935.9999999999995"></rect><rect x="1602.0288266101102" y="1819.8999999999994" fill="#000" width="108.96484375" height="32.199999999999996" opacity="1"></rect></mask><g transform="translate(1602.02882661011 1819.8999999999996) rotate(0 105.72678611874574 -118.06140320934793)"><text x="54.482421875" y="0" font-family="Helvetica, Segoe UI Emoji" font-size="28px" fill="#999" text-anchor="middle" style="white-space: pre;" direction="ltr" dominant-baseline="text-before-edge">alternate</text></g><g mask="url(#mask-C2dqzZbX3CHoFW3Ubmqkj)" stroke-linecap="round"><g transform="translate(2077.6448455018167 1571.1614032093476) rotate(0 -891.2708946403113 133.80728134248528)"><path d="M-0.03 -0.93 C-157.25 43.66, -646.23 267.21, -943.31 268.54 C-1240.39 269.86, -1642.81 50.78, -1782.51 7.02" stroke="#999" stroke-width="1.5" fill="none" stroke-dasharray="8 9"></path></g><g transform="translate(2077.6448455018167 1571.1614032093476) rotate(0 -891.2708946403113 133.80728134248528)"><path d="M-24.91 16.38 C-17.26 11.4, -7.76 7.41, -0.05 -1.13" stroke="#999" stroke-width="1.5" fill="none"></path></g><g transform="translate(2077.6448455018167 1571.1614032093476) rotate(0 -891.2708946403113 133.80728134248528)"><path d="M-31.58 -3.03 C-21.76 -2.16, -10.26 -0.3, -0.05 -1.13" stroke="#999" stroke-width="1.5" fill="none"></path></g><g transform="translate(2077.6448455018167 1571.1614032093476) rotate(0 -891.2708946403113 133.80728134248528)"><path d="M-1754.08 6.6 C-1762.34 6.95, -1768.9 8.3, -1782.53 6.82" stroke="#999" stroke-width="1.5" fill="none"></path></g><g transform="translate(2077.6448455018167 1571.1614032093476) rotate(0 -891.2708946403113 133.80728134248528)"><path d="M-1761.82 25.61 C-1767.9 20.24, -1772.13 15.86, -1782.53 6.82" stroke="#999" stroke-width="1.5" fill="none"></path></g></g><mask id="mask-C2dqzZbX3CHoFW3Ubmqkj"><rect x="0" y="0" fill="#fff" width="3959.6448455018162" height="1940.1614032093476"></rect><rect x="1080.784462366364" y="1824.0614032093474" fill="#000" width="108.96484375" height="32.199999999999996" opacity="1"></rect></mask><g transform="translate(1080.784462366364 1824.0614032093476) rotate(0 105.58948849514127 -119.09271865751458)"><text x="54.482421875" y="0" font-family="Helvetica, Segoe UI Emoji" font-size="28px" fill="#999" text-anchor="middle" style="white-space: pre;" direction="ltr" dominant-baseline="text-before-edge">alternate</text></g><g mask="url(#mask-yuZxGZwWRq19uBhSXKnUb)" stroke-linecap="round"><g transform="translate(1927.7821431254215 1211.915456789918) rotate(0 -727.0155396755786 -3.7285878626337308)"><path d="M0.77 -0.17 C-118.19 0.08, -471.87 4.31, -714.47 2.59 C-957.06 0.88, -1331.03 -8.33, -1454.8 -10.46" stroke="#999" stroke-width="1.5" fill="none" stroke-dasharray="8 9"></path></g><g transform="translate(1927.7821431254215 1211.915456789918) rotate(0 -727.0155396755786 -3.7285878626337308)"><path d="M-27.65 10.11 C-21.39 9.58, -14.73 3.29, 0.51 -1.91" stroke="#999" stroke-width="1.5" fill="none"></path></g><g transform="translate(1927.7821431254215 1211.915456789918) rotate(0 -727.0155396755786 -3.7285878626337308)"><path d="M-27.78 -10.41 C-21.31 -6.02, -14.62 -7.4, 0.51 -1.91" stroke="#999" stroke-width="1.5" fill="none"></path></g><g transform="translate(1927.7821431254215 1211.915456789918) rotate(0 -727.0155396755786 -3.7285878626337308)"><path d="M-1426.7 -20.29 C-1433.81 -15.64, -1440.69 -17.11, -1455.06 -12.19" stroke="#999" stroke-width="1.5" fill="none"></path></g><g transform="translate(1927.7821431254215 1211.915456789918) rotate(0 -727.0155396755786 -3.7285878626337308)"><path d="M-1427.12 0.23 C-1434.3 -0.04, -1441.09 -6.43, -1455.06 -12.19" stroke="#999" stroke-width="1.5" fill="none"></path></g></g><mask id="mask-yuZxGZwWRq19uBhSXKnUb"><rect x="0" y="0" fill="#fff" width="3483.7821431254215" height="1324.9154567899177"></rect><rect x="1158.9217599899685" y="1198.8154567899178" fill="#000" width="108.96484375" height="32.199999999999996" opacity="1"></rect></mask><g transform="translate(1158.9217599899685 1198.8154567899178) rotate(0 41.84484345987448 9.371412137366406)"><text x="54.482421875" y="0" font-family="Helvetica, Segoe UI Emoji" font-size="28px" fill="#999" text-anchor="middle" style="white-space: pre;" direction="ltr" dominant-baseline="text-before-edge">alternate</text></g><g mask="url(#mask-bJUKpkDeFuwHzpxEuuhZ6)" stroke-linecap="round"><g transform="translate(1967.6448455018167 1011.1614032093478) rotate(0 -750.4140767391768 65.25831018862448)"><path d="M1.13 -1.07 C-121.33 21.14, -484.74 133.52, -735.26 133.24 C-985.77 132.97, -1374.01 19.69, -1501.96 -2.73" stroke="#cccc" stroke-width="1.5" fill="none" stroke-dasharray="8 9"></path></g><g transform="translate(1967.6448455018167 1011.1614032093478) rotate(0 -750.4140767391768 65.25831018862448)"><path d="M-25.92 16.96 C-17.16 10.72, -12.21 4.85, 2.35 -0.97" stroke="#cccc" stroke-width="1.5" fill="none"></path></g><g transform="translate(1967.6448455018167 1011.1614032093478) rotate(0 -750.4140767391768 65.25831018862448)"><path d="M-30.4 -3.06 C-20.48 -4.15, -14.36 -4.81, 2.35 -0.97" stroke="#cccc" stroke-width="1.5" fill="none"></path></g><g transform="translate(1967.6448455018167 1011.1614032093478) rotate(0 -750.4140767391768 65.25831018862448)"><path d="M-1473.99 -4.7 C-1479.54 -5.22, -1488.89 -5.89, -1500.75 -2.62" stroke="#cccc" stroke-width="1.5" fill="none"></path></g><g transform="translate(1967.6448455018167 1011.1614032093478) rotate(0 -750.4140767391768 65.25831018862448)"><path d="M-1478.49 15.33 C-1482.87 9.55, -1491.05 3.68, -1500.75 -2.62" stroke="#cccc" stroke-width="1.5" fill="none"></path></g></g><mask id="mask-bJUKpkDeFuwHzpxEuuhZ6"><rect x="0" y="0" fill="#fff" width="3569.6448455018162" height="1246.1614032093476"></rect><rect x="1176.784462366364" y="1128.0614032093476" fill="#000" width="108.96484375" height="32.199999999999996" opacity="1"></rect></mask><g transform="translate(1176.784462366364 1128.0614032093476) rotate(0 40.44630639627576 -51.641689811375386)"><text x="54.482421875" y="0" font-family="Helvetica, Segoe UI Emoji" font-size="28px" fill="#cccc" text-anchor="middle" style="white-space: pre;" direction="ltr" dominant-baseline="text-before-edge">alternate</text></g><g mask="url(#mask-XneaRgvHiiz-nrUtdhnTw)" stroke-linecap="round"><g transform="translate(2470.925325224287 1013.8132093908264) rotate(0 -751.0127269867805 65.15697453944267)"><path d="M-0.61 0.06 C-123.03 22.25, -485.11 132.6, -735.24 132.26 C-985.38 131.93, -1373.6 20.39, -1501.42 -1.95" stroke="#999" stroke-width="1.5" fill="none" stroke-dasharray="8 9"></path></g><g transform="translate(2470.925325224287 1013.8132093908264) rotate(0 -751.0127269867805 65.15697453944267)"><path d="M-25.82 18.05 C-20.88 13.35, -13.42 8.2, -0.27 0.54" stroke="#999" stroke-width="1.5" fill="none"></path></g><g transform="translate(2470.925325224287 1013.8132093908264) rotate(0 -751.0127269867805 65.15697453944267)"><path d="M-30.24 -1.99 C-24.38 -1.8, -15.84 -2.08, -0.27 0.54" stroke="#999" stroke-width="1.5" fill="none"></path></g><g transform="translate(2470.925325224287 1013.8132093908264) rotate(0 -751.0127269867805 65.15697453944267)"><path d="M-1471.57 -3.96 C-1480.16 -4.09, -1486.07 -4.38, -1501.08 -1.47" stroke="#999" stroke-width="1.5" fill="none"></path></g><g transform="translate(2470.925325224287 1013.8132093908264) rotate(0 -751.0127269867805 65.15697453944267)"><path d="M-1476.02 16.07 C-1483.38 11.1, -1488.22 5.94, -1501.08 -1.47" stroke="#999" stroke-width="1.5" fill="none"></path></g></g><mask id="mask-XneaRgvHiiz-nrUtdhnTw"><rect x="0" y="0" fill="#fff" width="4072.9253252242866" height="1248.8132093908262"></rect><rect x="1680.0649420888344" y="1130.7132093908263" fill="#000" width="108.96484375" height="32.199999999999996" opacity="1"></rect></mask><g transform="translate(1680.0649420888342 1130.7132093908263) rotate(0 39.84765614867206 -51.74302546055719)"><text x="54.482421875" y="0" font-family="Helvetica, Segoe UI Emoji" font-size="28px" fill="#999" text-anchor="middle" style="white-space: pre;" direction="ltr" dominant-baseline="text-before-edge">alternate</text></g><g mask="url(#mask-4Vdu3URYhxqIU0LMdh3et)" stroke-linecap="round"><g transform="translate(2983.5239754718896 1004.4252166060726) rotate(0 -750.9656394127754 65.73671647515403)"><path d="M-0.56 0.12 C-123.33 22.41, -485.64 133.45, -735.77 133.15 C-985.9 132.85, -1373.52 20.68, -1501.37 -1.68" stroke="#999" stroke-width="1.5" fill="none" stroke-dasharray="8 9"></path></g><g transform="translate(2983.5239754718896 1004.4252166060726) rotate(0 -750.9656394127754 65.73671647515403)"><path d="M-25.66 17.26 C-16.17 11.45, -6.54 3.02, 1.13 -0.6" stroke="#999" stroke-width="1.5" fill="none"></path></g><g transform="translate(2983.5239754718896 1004.4252166060726) rotate(0 -750.9656394127754 65.73671647515403)"><path d="M-30.11 -2.77 C-19.07 -1.15, -7.79 -2.18, 1.13 -0.6" stroke="#999" stroke-width="1.5" fill="none"></path></g><g transform="translate(2983.5239754718896 1004.4252166060726) rotate(0 -750.9656394127754 65.73671647515403)"><path d="M-1471.42 -4.54 C-1482.39 -3.21, -1493.11 -4.25, -1499.67 -2.4" stroke="#999" stroke-width="1.5" fill="none"></path></g><g transform="translate(2983.5239754718896 1004.4252166060726) rotate(0 -750.9656394127754 65.73671647515403)"><path d="M-1475.89 15.49 C-1485.1 9.43, -1494.17 0.99, -1499.67 -2.4" stroke="#999" stroke-width="1.5" fill="none"></path></g></g><mask id="mask-4Vdu3URYhxqIU0LMdh3et"><rect x="0" y="0" fill="#fff" width="4585.52397547189" height="1239.4252166060724"></rect><rect x="2192.6635923364365" y="1121.3252166060724" fill="#000" width="108.96484375" height="32.199999999999996" opacity="1"></rect></mask><g transform="translate(2192.663592336437 1121.3252166060724) rotate(0 39.89474372267716 -51.16328352484584)"><text x="54.482421875" y="0" font-family="Helvetica, Segoe UI Emoji" font-size="28px" fill="#999" text-anchor="middle" style="white-space: pre;" direction="ltr" dominant-baseline="text-before-edge">alternate</text></g><g transform="translate(1155.5737484851097 252) rotate(0 94.9375 16.09999999999991)"><text x="94.9375" y="0" font-family="Helvetica, Segoe UI Emoji" font-size="28px" fill="#000000" text-anchor="middle" style="white-space: pre;" direction="ltr" dominant-baseline="text-before-edge">FiberRootNode</text></g><g stroke-linecap="round" transform="translate(1080.5112484851097 186) rotate(0 164 77)"><path d="M32 0 M32 0 C117.65 0, 203.3 0, 296 0 M32 0 C98.46 0, 164.93 0, 296 0 M296 0 C317.33 0, 328 10.67, 328 32 M296 0 C317.33 0, 328 10.67, 328 32 M328 32 C328 57.83, 328 83.65, 328 122 M328 32 C328 56.07, 328 80.14, 328 122 M328 122 C328 143.33, 317.33 154, 296 154 M328 122 C328 143.33, 317.33 154, 296 154 M296 154 C198.39 154, 100.78 154, 32 154 M296 154 C203.65 154, 111.3 154, 32 154 M32 154 C10.67 154, 0 143.33, 0 122 M32 154 C10.67 154, 0 143.33, 0 122 M0 122 C0 95.45, 0 68.91, 0 32 M0 122 C0 101.89, 0 81.78, 0 32 M0 32 C0 10.67, 10.67 0, 32 0 M0 32 C0 10.67, 10.67 0, 32 0" stroke="#000000" stroke-width="1" fill="none"></path></g><g mask="url(#mask-w_0DFcXWndTjnuvs-OoMB)" stroke-linecap="round"><g transform="translate(1070.5112484851097 262) rotate(0 -368.9999999999999 170.9999999999999)"><path d="M0 0 C-123 57, -615 285, -738 342 M0 0 C-123 57, -615 285, -738 342" stroke="#a61e4d" stroke-width="1" fill="none"></path></g><g transform="translate(1070.5112484851097 262) rotate(0 -368.9999999999999 170.9999999999999)"><path d="M8 0 C8 0.46, 7.96 0.93, 7.88 1.39 C7.8 1.85, 7.68 2.3, 7.52 2.74 C7.36 3.17, 7.16 3.6, 6.93 4 C6.7 4.4, 6.43 4.79, 6.13 5.14 C5.83 5.5, 5.5 5.83, 5.14 6.13 C4.79 6.43, 4.4 6.7, 4 6.93 C3.6 7.16, 3.17 7.36, 2.74 7.52 C2.3 7.68, 1.85 7.8, 1.39 7.88 C0.93 7.96, 0.46 8, 0 8 C-0.46 8, -0.93 7.96, -1.39 7.88 C-1.85 7.8, -2.3 7.68, -2.74 7.52 C-3.17 7.36, -3.6 7.16, -4 6.93 C-4.4 6.7, -4.79 6.43, -5.14 6.13 C-5.5 5.83, -5.83 5.5, -6.13 5.14 C-6.43 4.79, -6.7 4.4, -6.93 4 C-7.16 3.6, -7.36 3.17, -7.52 2.74 C-7.68 2.3, -7.8 1.85, -7.88 1.39 C-7.96 0.93, -8 0.46, -8 0 C-8 -0.46, -7.96 -0.93, -7.88 -1.39 C-7.8 -1.85, -7.68 -2.3, -7.52 -2.74 C-7.36 -3.17, -7.16 -3.6, -6.93 -4 C-6.7 -4.4, -6.43 -4.79, -6.13 -5.14 C-5.83 -5.5, -5.5 -5.83, -5.14 -6.13 C-4.79 -6.43, -4.4 -6.7, -4 -6.93 C-3.6 -7.16, -3.17 -7.36, -2.74 -7.52 C-2.3 -7.68, -1.85 -7.8, -1.39 -7.88 C-0.93 -7.96, -0.46 -8, 0 -8 C0.46 -8, 0.93 -7.96, 1.39 -7.88 C1.85 -7.8, 2.3 -7.68, 2.74 -7.52 C3.17 -7.36, 3.6 -7.16, 4 -6.93 C4.4 -6.7, 4.79 -6.43, 5.14 -6.13 C5.5 -5.83, 5.83 -5.5, 6.13 -5.14 C6.43 -4.79, 6.7 -4.4, 6.93 -4 C7.16 -3.6, 7.36 -3.17, 7.52 -2.74 C7.68 -2.3, 7.8 -1.85, 7.88 -1.39 C7.96 -0.93, 7.98 -0.23, 8 0 C8.02 0.23, 8.02 -0.23, 8 0" stroke="none" stroke-width="0" fill="#a61e4d"></path></g><g transform="translate(1070.5112484851097 262) rotate(0 -368.9999999999999 170.9999999999999)"><path d="M-716.74 320.84 C-724.88 328.94, -733.02 337.05, -738 342 M-716.74 320.84 C-723.91 327.98, -731.08 335.11, -738 342" stroke="#a61e4d" stroke-width="1" fill="none"></path></g><g transform="translate(1070.5112484851097 262) rotate(0 -368.9999999999999 170.9999999999999)"><path d="M-708.11 339.46 C-719.56 340.43, -731 341.4, -738 342 M-708.11 339.46 C-718.19 340.31, -728.27 341.17, -738 342" stroke="#a61e4d" stroke-width="1" fill="none"></path></g></g><mask id="mask-w_0DFcXWndTjnuvs-OoMB"><rect x="0" y="0" fill="#fff" width="1908.5112484851095" height="703.9999999999998"></rect><rect x="657.9389828601097" y="416.9000000000001" fill="#000" width="87.14453125" height="32.199999999999996" opacity="1"></rect></mask><g transform="translate(657.9389828601101 416.9000000000001) rotate(0 43.572265625 16.099999999999795)"><text x="43.572265625" y="0" font-family="Helvetica, Segoe UI Emoji" font-size="28px" fill="#a61e4d" text-anchor="middle" style="white-space: pre;" direction="ltr" dominant-baseline="text-before-edge">current</text></g><g mask="url(#mask-lNHuyco882Raht8rYwvFC)" stroke-linecap="round"><g transform="translate(1410.5112484851097 258) rotate(0 341.9999999999998 176.9999999999999)"><path d="M0 0 C114 59, 570 295, 684 354" stroke="#5f3dc4" stroke-width="1.5" fill="none" stroke-dasharray="8 9"></path></g><g transform="translate(1410.5112484851097 258) rotate(0 341.9999999999998 176.9999999999999)"><path d="M8 0 C8 0.46, 7.96 0.93, 7.88 1.39 C7.8 1.85, 7.68 2.3, 7.52 2.74 C7.36 3.17, 7.16 3.6, 6.93 4 C6.7 4.4, 6.43 4.79, 6.13 5.14 C5.83 5.5, 5.5 5.83, 5.14 6.13 C4.79 6.43, 4.4 6.7, 4 6.93 C3.6 7.16, 3.17 7.36, 2.74 7.52 C2.3 7.68, 1.85 7.8, 1.39 7.88 C0.93 7.96, 0.46 8, 0 8 C-0.46 8, -0.93 7.96, -1.39 7.88 C-1.85 7.8, -2.3 7.68, -2.74 7.52 C-3.17 7.36, -3.6 7.16, -4 6.93 C-4.4 6.7, -4.79 6.43, -5.14 6.13 C-5.5 5.83, -5.83 5.5, -6.13 5.14 C-6.43 4.79, -6.7 4.4, -6.93 4 C-7.16 3.6, -7.36 3.17, -7.52 2.74 C-7.68 2.3, -7.8 1.85, -7.88 1.39 C-7.96 0.93, -8 0.46, -8 0 C-8 -0.46, -7.96 -0.93, -7.88 -1.39 C-7.8 -1.85, -7.68 -2.3, -7.52 -2.74 C-7.36 -3.17, -7.16 -3.6, -6.93 -4 C-6.7 -4.4, -6.43 -4.79, -6.13 -5.14 C-5.83 -5.5, -5.5 -5.83, -5.14 -6.13 C-4.79 -6.43, -4.4 -6.7, -4 -6.93 C-3.6 -7.16, -3.17 -7.36, -2.74 -7.52 C-2.3 -7.68, -1.85 -7.8, -1.39 -7.88 C-0.93 -7.96, -0.46 -8, 0 -8 C0.46 -8, 0.93 -7.96, 1.39 -7.88 C1.85 -7.8, 2.3 -7.68, 2.74 -7.52 C3.17 -7.36, 3.6 -7.16, 4 -6.93 C4.4 -6.7, 4.79 -6.43, 5.14 -6.13 C5.5 -5.83, 5.83 -5.5, 6.13 -5.14 C6.43 -4.79, 6.7 -4.4, 6.93 -4 C7.16 -3.6, 7.36 -3.17, 7.52 -2.74 C7.68 -2.3, 7.8 -1.85, 7.88 -1.39 C7.96 -0.93, 7.98 -0.23, 8 0 C8.02 0.23, 8.02 -0.23, 8 0" stroke="none" stroke-width="0" fill="#5f3dc4"></path></g><g transform="translate(1410.5112484851097 258) rotate(0 341.9999999999998 176.9999999999999)"><path d="M654.25 350.16 C663.02 351.29, 671.8 352.42, 684 354" stroke="#5f3dc4" stroke-width="1.5" fill="none"></path></g><g transform="translate(1410.5112484851097 258) rotate(0 341.9999999999998 176.9999999999999)"><path d="M663.68 331.93 C669.67 338.44, 675.67 344.95, 684 354" stroke="#5f3dc4" stroke-width="1.5" fill="none"></path></g></g><mask id="mask-lNHuyco882Raht8rYwvFC"><rect x="0" y="0" fill="#fff" width="2194.5112484851093" height="711.9999999999998"></rect><rect x="1618.7182797351097" y="418.9000000000001" fill="#000" width="267.5859375" height="32.199999999999996" opacity="1"></rect></mask><g transform="translate(1618.7182797351095 418.9000000000001) rotate(0 133.79296875 16.099999999999795)"><text x="133.79296875" y="0" font-family="Helvetica, Segoe UI Emoji" font-size="28px" fill="#5f3dc4" text-anchor="middle" style="white-space: pre;" direction="ltr" dominant-baseline="text-before-edge">Commitcurrent</text></g><g transform="translate(218.9253109851099 61.90000000000009) rotate(0 71.5859375 16.09999999999991)"><text x="71.5859375" y="0" font-family="Helvetica, Segoe UI Emoji" font-size="28px" fill="#0b7285" text-anchor="middle" style="white-space: pre;" direction="ltr" dominant-baseline="text-before-edge">current tree</text></g></svg>