<svg version="1.1" xmlns="http://www.w3.org/2000/svg" viewBox="0 0 432 552" width="432" height="552">
  <!-- svg-source:excalidraw -->
  
  <defs>
    <style class="style-fonts">
      @font-face {
        font-family: "Virgil";
        src: url("https://excalidraw.com/Virgil.woff2");
      }
      @font-face {
        font-family: "Cascadia";
        src: url("https://excalidraw.com/Cascadia.woff2");
      }
    </style>
  </defs>
  <rect x="0" y="0" width="432" height="552" fill="#ffffff"></rect><g stroke-linecap="round" transform="translate(10 10) rotate(0 206 92.66668701171875)"><path d="M32 0 M32 0 C150.11 0.11, 265.97 0.34, 380 0 M32 0 C107.91 -1.07, 184.55 -1.53, 380 0 M380 0 C401.2 1.4, 410.03 12.66, 412 32 M380 0 C399.9 -0.84, 414.1 12.96, 412 32 M412 32 C409.82 75.68, 412.83 120.99, 412 153.33 M412 32 C414.06 55.57, 412.49 81.13, 412 153.33 M412 153.33 C412.88 174.3, 402.28 185.47, 380 185.33 M412 153.33 C413.29 175.2, 399.33 183.52, 380 185.33 M380 185.33 C255.92 184.57, 130.75 184.29, 32 185.33 M380 185.33 C254.27 184.84, 129.88 184.03, 32 185.33 M32 185.33 C12.58 183.35, 0.5 172.88, 0 153.33 M32 185.33 C11.54 186.17, -0.16 176.01, 0 153.33 M0 153.33 C0.51 111.86, 0.85 70.41, 0 32 M0 153.33 C0.03 119.69, -1.29 84.2, 0 32 M0 32 C-0.79 8.96, 10.59 0.09, 32 0 M0 32 C-0.39 8.7, 9.69 -1.07, 32 0" stroke="#000000" stroke-width="1" fill="none"></path></g><g transform="translate(176 86) rotate(0 40 12.5)"><text x="0" y="0" font-family="Virgil, Segoe UI Emoji" font-size="20px" fill="#000000" text-anchor="start" style="white-space: pre;" direction="ltr" dominant-baseline="text-before-edge">我操了就</text></g><g stroke-linecap="round" transform="translate(134.33331298828125 250.66668701171875) rotate(0 81.66668701171875 145.66665649414062)"><path d="M102.5 36.5 M102.5 36.5 C113.23 55.37, 124.66 75.01, 142.83 109.5 M102.5 36.5 C113.63 57.78, 125.97 79.15, 142.83 109.5 M142.83 109.5 C162.85 144.99, 161.71 145.14, 142.83 182.5 M142.83 109.5 C161.99 147.34, 162.42 145.57, 142.83 182.5 M142.83 182.5 C132.71 203.86, 119.6 223.49, 102.5 254.83 M142.83 182.5 C134.07 201.01, 122.03 220.46, 102.5 254.83 M102.5 254.83 C83.04 291.08, 82.88 291.27, 61.5 254.83 M102.5 254.83 C80.81 289.57, 84.22 293.02, 61.5 254.83 M61.5 254.83 C48.46 232.6, 36.98 206.17, 20.5 182.5 M61.5 254.83 C49.68 233.5, 36.86 210.57, 20.5 182.5 M20.5 182.5 C-1.55 147.15, -1.45 145.61, 20.5 109.5 M20.5 182.5 C0.76 146.48, 0.55 146.57, 20.5 109.5 M20.5 109.5 C35.32 87.24, 45.79 66.04, 61.5 36.5 M20.5 109.5 C35.03 84.12, 49.96 58.23, 61.5 36.5 M61.5 36.5 C80.29 1.96, 83.31 -1.54, 102.5 36.5 M61.5 36.5 C83.69 0.65, 82.28 -0.82, 102.5 36.5" stroke="#000000" stroke-width="1" fill="none"></path></g><g stroke-linecap="round"><g transform="translate(238.11185555309066 190.66668701171875) rotate(0 -22.11185555309055 28.07499680596402)"><path d="M0.3 0.06 C-7.16 9.34, -37.41 46.54, -44.52 55.95 M-1 -0.96 C-8.14 8.44, -35.5 47.32, -42.43 57.11" stroke="#000000" stroke-width="1" fill="none"></path></g><g transform="translate(238.11185555309066 190.66668701171875) rotate(0 -22.11185555309055 28.07499680596402)"><path d="M-34.44 26.18 C-38.21 39.06, -39.78 46.31, -41.62 58.3 M-34.06 28.57 C-36.82 37.81, -39.57 49.81, -43.2 57.84" stroke="#000000" stroke-width="1" fill="none"></path></g><g transform="translate(238.11185555309066 190.66668701171875) rotate(0 -22.11185555309055 28.07499680596402)"><path d="M-17.68 38.03 C-26.85 47.15, -33.8 50.6, -41.62 58.3 M-17.3 40.41 C-26.02 45.4, -34.84 53.11, -43.2 57.84" stroke="#000000" stroke-width="1" fill="none"></path></g></g><mask></mask><g transform="translate(176 380) rotate(0 40 12.5)"><text x="0" y="0" font-family="Virgil, Segoe UI Emoji" font-size="20px" fill="#000000" text-anchor="start" style="white-space: pre;" direction="ltr" dominant-baseline="text-before-edge">傻逼微信</text></g><g transform="translate(334 88) rotate(0 11 13.666671752929688)" stroke="none"><path fill="#000000" d="M -1.92,0 Q -1.92,0 -1.97,-1.41 -2.01,-2.83 -1.36,-4.27 -0.72,-5.71 0.53,-7.47 1.80,-9.22 4.91,-10.26 8.02,-11.29 12.16,-12.19 16.29,-13.08 20.43,-13.43 24.57,-13.79 27.51,-13.72 30.46,-13.65 32.52,-13.36 34.59,-13.08 35.82,-11.86 37.05,-10.64 38.41,-9.05 39.78,-7.46 40.90,-4.19 42.03,-0.91 42.64,3.37 43.26,7.65 43.88,12.88 44.50,18.11 44.75,22.67 45.01,27.24 44.92,30.37 44.83,33.50 44.18,36.31 43.53,39.13 41.58,41.48 39.64,43.83 36.19,45.62 32.74,47.42 27.82,49.11 22.90,50.81 16.88,51.54 10.86,52.27 5.24,52.57 -0.36,52.88 -5.07,52.81 -9.79,52.74 -12.52,52.11 -15.24,51.47 -17.17,49.91 -19.10,48.34 -20.36,45.21 -21.62,42.07 -22.11,38.99 -22.61,35.90 -22.81,32.28 -23.02,28.66 -23.10,25.40 -23.19,22.14 -22.64,18.36 -22.09,14.57 -21.08,11.19 -20.06,7.81 -18.66,4.25 -17.26,0.69 -14.88,-2.83 -12.50,-6.36 -10.77,-9.31 -9.05,-12.25 -7.71,-14.31 -6.38,-16.37 -4.65,-18.79 -2.93,-21.21 -1.83,-22.55 -0.74,-23.89 1.57,-25.05 3.89,-26.20 5.56,-25.96 7.23,-25.72 10.13,-23.86 13.04,-22.00 16.42,-19.91 19.79,-17.81 23.11,-15.95 26.43,-14.10 29.44,-12.10 32.44,-10.11 34.02,-8.38 35.59,-6.66 37.09,-5.49 38.59,-4.32 40.30,-2.35 42.01,-0.38 42.14,-0.14 42.27,0.10 42.32,0.37 42.37,0.64 42.33,0.91 42.29,1.19 42.16,1.43 42.03,1.68 41.84,1.87 41.64,2.07 41.39,2.18 41.14,2.30 40.86,2.34 40.59,2.37 40.32,2.31 40.05,2.26 39.81,2.12 39.57,1.98 39.39,1.77 39.21,1.56 39.10,1.30 39.00,1.05 38.98,0.77 38.96,0.50 39.03,0.23 39.10,-0.03 39.25,-0.26 39.41,-0.49 39.63,-0.66 39.84,-0.83 40.10,-0.92 40.37,-1.01 40.64,-1.02 40.92,-1.02 41.18,-0.93 41.44,-0.85 41.67,-0.68 41.89,-0.52 42.05,-0.29 42.20,-0.06 42.28,0.19 42.36,0.46 42.35,0.73 42.34,1.01 42.24,1.27 42.14,1.53 41.96,1.74 41.78,1.95 41.55,2.10 41.31,2.24 41.04,2.30 40.77,2.37 40.50,2.34 40.22,2.31 39.97,2.20 39.72,2.09 39.52,1.90 39.31,1.71 39.31,1.71 39.31,1.71 38.03,-0.15 36.74,-2.03 35.09,-3.35 33.44,-4.68 32.11,-6.13 30.77,-7.58 27.84,-9.44 24.91,-11.30 21.49,-13.10 18.06,-14.90 14.57,-16.89 11.09,-18.88 7.76,-20.68 4.43,-22.47 2.94,-22.17 1.45,-21.86 0.33,-20.77 -0.79,-19.69 -2.48,-17.31 -4.18,-14.94 -5.48,-12.93 -6.78,-10.92 -8.55,-7.91 -10.33,-4.89 -12.57,-1.61 -14.82,1.66 -16.18,5.12 -17.54,8.57 -18.52,11.76 -19.49,14.95 -20.02,18.52 -20.56,22.08 -20.47,25.30 -20.39,28.51 -20.20,32.00 -20.01,35.50 -19.58,38.32 -19.15,41.15 -18.23,43.81 -17.30,46.47 -15.91,47.72 -14.52,48.96 -12.13,49.53 -9.74,50.10 -5.12,50.17 -0.50,50.23 5.01,49.93 10.54,49.63 16.29,48.95 22.04,48.28 26.79,46.65 31.53,45.02 34.59,43.51 37.65,42.01 39.28,40.19 40.92,38.38 41.48,35.90 42.04,33.42 42.10,30.41 42.16,27.41 41.87,22.94 41.58,18.47 40.91,13.29 40.23,8.10 39.61,4.10 38.98,0.11 38.09,-2.56 37.19,-5.24 35.32,-7.70 33.45,-10.17 31.94,-10.28 30.44,-10.39 27.68,-10.35 24.92,-10.32 21.05,-9.85 17.18,-9.38 13.29,-8.33 9.41,-7.29 6.57,-6.06 3.73,-4.83 2.87,-3.68 2.01,-2.53 1.97,-1.26 1.92,0 1.90,0.23 1.87,0.46 1.79,0.67 1.70,0.89 1.57,1.08 1.44,1.27 1.27,1.43 1.09,1.58 0.89,1.69 0.68,1.80 0.45,1.86 0.23,1.91 -0.00,1.91 -0.23,1.91 -0.45,1.85 -0.68,1.80 -0.89,1.69 -1.09,1.58 -1.27,1.43 -1.44,1.27 -1.57,1.08 -1.70,0.89 -1.79,0.67 -1.87,0.46 -1.90,0.23 -1.92,-0.00 -1.92,-0.00 L -1.92,0 Z"></path></g></svg>